<svg width="194" height="162" viewBox="0 0 194 162" fill="none" xmlns="http://www.w3.org/2000/svg">
<ellipse cx="100.254" cy="80.7227" rx="49.8692" ry="79.1867" transform="rotate(62.5923 100.254 80.7227)" fill="#DDE7FF"/>
<g clip-path="url(#clip0_51_7517)">
<path d="M71.4051 102.166C74.516 101.073 77.5318 100.024 79.2849 97.0403C81.3647 93.4924 80.8596 88.8254 80.5179 84.9221C79.7097 75.7056 79.1898 66.4979 78.6371 57.2608C78.0756 47.8476 78.441 37.653 76.3998 28.4248C75.6481 25.0266 74.1179 21.2613 71.1347 19.1907C67.8753 16.9292 63.7631 17.6164 60.0312 17.8044C50.3985 18.2831 40.7241 18.4418 31.1032 19.0938C22.7422 19.6606 16.2708 22.6711 16.5768 31.7466C16.8888 41.1041 17.7742 50.4762 18.3031 59.8249C18.8825 70.0693 19.242 80.3725 20.4038 90.5729C20.8584 94.5468 20.9891 99.6808 24.5695 102.333C28.1439 104.979 34.4756 104.025 38.671 103.957C43.6151 103.878 48.5682 103.484 53.5064 103.214C56.1122 103.07 58.7209 102.929 61.3267 102.779C63.5759 102.653 68.6508 101.493 70.6296 102.58C61.1038 104.565 50.8828 104.683 41.1817 105.317C34.2438 105.769 24.3347 107.479 20.5375 100.03C18.6389 96.3061 18.4755 91.5363 18.113 87.4567C17.6435 82.1847 17.3939 76.8863 17.0166 71.6084C16.2946 61.5225 15.5904 51.4337 15.005 41.3391C14.5445 33.409 12.1437 23.7901 20.6563 19.2671C25.033 16.9438 29.992 16.8969 34.8292 16.6942C40.1833 16.468 45.5375 16.2948 50.8887 16.0099C59.5558 15.5458 70.796 12.7644 76.0165 21.6079C80.5863 29.35 79.478 40.1936 79.9296 48.8344C80.5031 59.8308 80.7556 70.8624 81.6232 81.8411C81.9946 86.5345 82.7969 91.9651 80.7229 96.4059C79.6265 98.7556 74.5012 103.878 71.4111 102.166H71.4051Z" fill="#1B5FFF"/>
<path d="M33.0314 106.83C27.7218 106.83 22.2785 105.74 19.6044 100.494C17.8484 97.0521 17.5037 92.8169 17.2006 89.0839C17.159 88.564 17.1174 88.05 17.0729 87.5478C16.7757 84.2054 16.5618 80.8014 16.3568 77.5119C16.2379 75.5998 16.1131 73.6203 15.9735 71.6818C15.1683 60.427 14.5176 50.9697 13.962 41.4008C13.8966 40.2582 13.7896 39.101 13.6797 37.8733C13.026 30.6893 12.2862 22.5478 20.1629 18.3654C24.4623 16.0833 29.2223 15.8924 33.8247 15.7103L34.7844 15.6721C36.4572 15.6016 38.13 15.537 39.8058 15.4724C43.4218 15.3314 47.1596 15.1846 50.8321 14.9878C52.181 14.9144 53.5805 14.7881 55.0631 14.653C63.0885 13.9187 72.1864 13.0846 76.9136 21.0939C80.6306 27.388 80.7317 35.6471 80.8208 42.9368C80.8446 44.9898 80.8713 46.9283 80.9664 48.7874C81.1655 52.5763 81.3259 56.4297 81.4834 60.1568C81.7805 67.2498 82.0895 74.5836 82.657 81.7647C82.6986 82.3052 82.7491 82.8573 82.7967 83.4154C83.18 87.7505 83.6108 92.6671 81.6617 96.8407C80.7198 98.8584 77.5198 102.277 74.4534 103.261C73.3155 103.625 72.2874 103.634 71.3842 103.29C71.2415 103.437 71.0543 103.546 70.8434 103.59C63.3529 105.153 55.4286 105.57 47.7628 105.975C45.6176 106.089 43.3951 106.207 41.2469 106.345C40.5249 106.392 39.7702 106.454 38.9947 106.515C37.1406 106.665 35.0964 106.83 33.0314 106.83ZM64.8147 18.5886C63.7867 18.5886 62.7408 18.6591 61.7068 18.7296C61.1601 18.7678 60.6164 18.803 60.0816 18.8295C56.2724 19.0204 52.4009 19.1614 48.6542 19.2994C42.9167 19.5079 36.9831 19.7253 31.1744 20.1188C21.6812 20.762 17.373 24.4451 17.6136 31.7114C17.8068 37.4592 18.2227 43.3157 18.6238 48.9813C18.8764 52.5175 19.1349 56.1712 19.3369 59.7662C19.4617 61.9748 19.5776 64.1835 19.6905 66.398C20.1005 74.3075 20.5254 82.4843 21.4346 90.4584C21.4822 90.8843 21.5297 91.3249 21.5743 91.7742C21.9397 95.3545 22.3557 99.4135 25.1903 101.511C27.8079 103.446 32.4104 103.214 36.1126 103.029C37.0128 102.985 37.8597 102.941 38.65 102.929C42.1739 102.873 45.7691 102.65 49.2484 102.436C50.6479 102.351 52.0473 102.262 53.4438 102.186C56.0496 102.045 58.6554 101.901 61.2611 101.751C61.8138 101.719 62.6012 101.616 63.4361 101.505C65.9765 101.167 68.8259 100.785 70.6413 101.461C70.7513 101.343 70.8909 101.252 71.0514 101.196L71.1049 101.179C74.0494 100.145 76.8304 99.1668 78.3785 96.5264C80.2177 93.3896 79.8433 89.172 79.5135 85.4507L79.4748 85.0131C78.738 76.6161 78.2329 68.081 77.7426 59.8279L77.594 57.3255C77.4366 54.6645 77.3474 51.8949 77.2642 49.2133C77.0473 42.32 76.8245 35.1889 75.3775 28.648C74.7506 25.8197 73.4016 22.0279 70.5284 20.0337C68.8616 18.8765 66.8708 18.5886 64.8088 18.5886H64.8147ZM16.2409 44.7079C16.5885 50.4234 16.9689 56.18 17.4027 62.389C17.3581 61.5519 17.3135 60.7178 17.266 59.8807C17.0639 56.3004 16.8054 52.6526 16.5529 49.1252C16.4489 47.6626 16.3449 46.1882 16.2439 44.7079H16.2409ZM62.3902 16.2537C60.0667 16.2537 57.6481 16.4739 55.2503 16.6942C53.7498 16.8323 52.3296 16.9615 50.942 17.0349C47.2547 17.2317 43.508 17.3786 39.8831 17.5195C38.2132 17.5842 36.5404 17.6488 34.8676 17.7193L33.902 17.7574C29.5342 17.9307 25.018 18.1099 21.1405 20.1688C14.473 23.7079 15.1208 30.8127 15.7447 37.6824C15.7923 38.2199 15.8428 38.7633 15.8903 39.3096C15.7417 36.7984 15.6169 34.2784 15.5338 31.776C15.2545 23.3937 20.466 18.7795 31.0288 18.0629C36.8702 17.6664 42.8186 17.449 48.5739 17.2376C52.3147 17.0995 56.1803 16.9586 59.9746 16.7706C60.4975 16.7442 61.0264 16.7089 61.5612 16.6707C63.3499 16.5503 65.2664 16.4181 67.1383 16.6619C65.6348 16.3565 64.0333 16.2449 62.3843 16.2449L62.3902 16.2537ZM75.9301 23.6697C76.6432 25.2264 77.1097 26.8212 77.4158 28.2046C77.8377 30.1107 78.1586 32.058 78.4052 34.0287C78.0784 30.3339 77.4009 26.7918 75.9301 23.6697Z" fill="#1B5FFF"/>
<path d="M70.656 51.0225C70.656 53.3046 70.7571 55.387 68.3949 56.4267C65.8991 57.5251 61.5581 57.2549 58.8602 57.4869C52.1957 58.0567 45.5194 58.5237 38.843 58.9349C33.9701 59.2374 26.3786 61.5019 25.2406 55.1931C24.0432 48.5671 24.4622 41.2861 23.9987 34.5662C23.8412 32.287 23.2469 29.485 25.1782 27.7551C27.1927 25.9518 31.4713 26.4834 33.9285 26.3688C40.9258 26.0369 47.9201 25.6199 54.9174 25.2939C59.6862 25.0707 68.5643 22.5653 69.7766 28.9035C71.1106 35.8878 70.3767 43.9148 70.656 51.0284V51.0225ZM60.9698 56.2622C60.9698 56.2622 60.9698 56.2828 60.9698 56.2916C62.8149 56.2916 66.9925 57.0346 68.6297 55.6572C70.2817 54.265 69.521 51.6128 69.3606 49.8095C68.7931 43.4831 68.5346 37.1361 68.0206 30.8067C67.8215 28.3602 67.7353 27.1237 65.082 26.7624C62.5208 26.4129 59.2584 27.1824 56.6704 27.3234C50.0654 27.6905 43.4573 28.0224 36.8522 28.3807C34.6654 28.4982 28.9993 27.8902 27.0858 29.1943C25.3298 30.3897 26.132 33.1417 26.236 34.948C26.6074 41.3743 26.1172 48.3057 27.1838 54.6468C28.0396 59.7338 36.5224 57.1903 40.391 57.0258C47.2486 56.7321 54.1092 56.5148 60.9668 56.2651L60.9698 56.2622Z" fill="#1B5FFF"/>
<path d="M31.6914 60.5944C28.2359 60.5944 24.9853 59.6399 24.2158 55.3723C23.4284 51.0137 23.3274 46.3732 23.2293 41.8853C23.1759 39.4799 23.1224 36.9893 22.959 34.6337C22.9382 34.3283 22.9084 34.0111 22.8787 33.688C22.6797 31.5205 22.4301 28.8272 24.4802 26.9915C26.364 25.3056 29.567 25.3321 32.1401 25.3526C32.7759 25.3585 33.3791 25.3644 33.8783 25.338C37.2952 25.1764 40.7656 24.9914 44.1261 24.8122C47.647 24.6243 51.2868 24.4304 54.8671 24.263C55.7109 24.2248 56.7212 24.1044 57.7878 23.981C62.5032 23.4289 69.6312 22.5977 70.7989 28.7097C71.714 33.4971 71.6754 38.7309 71.6398 43.7915C71.6219 46.2997 71.6041 48.6699 71.6962 50.9843C71.6962 50.999 71.6962 51.0108 71.6962 51.0255V51.2927C71.6992 53.5455 71.7051 56.0978 68.8171 57.3695C66.8293 58.2448 63.971 58.327 61.4484 58.4004C60.5333 58.4268 59.6716 58.4533 58.9496 58.515C52.915 59.0319 46.5447 59.493 38.9056 59.9659C38.0915 60.0158 37.1882 60.1245 36.2345 60.239C34.8142 60.4094 33.2305 60.6003 31.6914 60.6003V60.5944ZM26.7295 56.4473C27.1276 57.2138 27.7189 57.7249 28.4825 58.0509C27.7575 57.6867 27.1543 57.1669 26.7295 56.4473ZM29.4273 27.4526C27.9982 27.5466 26.6611 27.811 25.8767 28.5159C24.5961 29.6613 24.7774 31.6144 24.9527 33.503C24.9853 33.8407 25.0151 34.1756 25.0359 34.4957C25.2022 36.9011 25.2557 39.4153 25.3092 41.8442C25.3478 43.6417 25.3865 45.4627 25.4726 47.2748C25.4102 45.5038 25.3924 43.7269 25.3746 41.9764C25.3508 39.6649 25.33 37.2742 25.1993 35.0068C25.1814 34.6837 25.1339 34.3077 25.0864 33.9083C24.8695 32.1137 24.5694 29.6584 26.4947 28.3455C27.2078 27.8609 28.2478 27.5936 29.4273 27.4526ZM69.1053 31.3061C69.2687 33.3591 69.4054 35.4297 69.5361 37.468C69.4826 35.3739 69.3638 33.3003 69.1053 31.3061ZM34.8736 27.3498C35.6521 27.3675 36.3206 27.3792 36.793 27.3528C39.6752 27.1971 42.5602 27.0444 45.4423 26.8946C49.1653 26.6978 52.8883 26.504 56.6112 26.2984C57.464 26.2514 58.3969 26.131 59.3864 26.0047C60.557 25.8549 61.7515 25.7051 62.9073 25.6552H62.8924C61.4454 25.6552 59.7994 25.8167 58.0255 26.0223C56.9232 26.1515 55.8803 26.2719 54.9622 26.316C51.3878 26.4834 47.751 26.6773 44.233 26.8652C41.1637 27.0297 38.0023 27.1971 34.8707 27.3498H34.8736Z" fill="#1B5FFF"/>
<path d="M46.63 42.3428C45.1983 42.8413 37.7748 46.5415 36.3902 44.9937C34.4449 42.8253 43.7925 40.6032 44.9205 40.2105C46.8725 39.5308 54.4436 35.5348 56.0333 36.5697C59.9729 39.1355 48.111 41.9296 46.6618 42.4342C46.6508 42.4025 46.641 42.3744 46.63 42.3428Z" fill="white" stroke="white" stroke-width="1.5"/>
<path d="M39.9273 85.2686C39.9273 88.5229 40.3671 92.7082 36.1895 93.2897C34.6267 93.5071 33.0549 93.0841 32.1308 91.7918C31.1354 90.3938 31.9555 88.1381 31.0315 86.931C29.3141 84.6871 25.187 86.8429 23.9599 83.1892C22.5783 79.0714 27.0738 78.1374 30.0123 77.7292C30.354 75.2033 29.5547 70.9916 32.9152 70.2691C36.139 69.5759 37.2592 71.9726 37.9277 74.3163C39.0122 78.1286 42.0993 75.5323 44.2921 78.2461C47.3376 82.0202 43.1571 84.5226 39.9303 85.2686H39.9273ZM34.591 71.0944C30.2589 71.0415 32.5141 74.8098 31.798 77.4267C30.9423 80.5693 27.7928 78.6279 26.227 80.6604C23.6657 83.9822 30.3035 83.7032 31.6822 84.5402C34.2047 86.0734 32.3329 89.7682 34.5553 90.9665C38.6586 93.184 37.2295 86.0264 37.9723 84.6372C39.1845 82.3609 42.8481 83.6855 43.2106 80.9688C43.6622 77.5823 39.2826 79.0538 37.6811 77.4472C35.9934 75.7555 37.898 71.1355 34.591 71.0973V71.0944Z" fill="#1B5FFF"/>
<path d="M35.429 94.3735C33.7027 94.3735 32.1933 93.6627 31.2841 92.3851C30.6007 91.4247 30.5532 90.2881 30.5146 89.2836C30.4878 88.5669 30.4611 87.8885 30.2026 87.5537C29.748 86.9604 28.9755 86.837 27.7513 86.6843C26.1171 86.4816 23.8768 86.2056 22.9736 83.5152C22.4803 82.0467 22.5724 80.7603 23.2469 79.6882C24.3611 77.9113 26.8154 77.2094 29.0527 76.8393C29.0705 76.528 29.0824 76.1961 29.0913 75.8554C29.1716 73.3882 29.2785 70.0077 32.6954 69.2705C37.289 68.2836 38.525 72.6187 38.9291 74.0432C39.3391 75.4912 39.9215 75.5646 41.1962 75.7291C42.3193 75.873 43.8584 76.0698 45.1033 77.6117C46.6157 79.4856 46.5206 81.0598 46.173 82.0496C45.4629 84.0762 43.1512 85.4037 40.9733 86.0616C40.9733 86.0822 40.9733 86.0998 40.9733 86.1204C41.009 89.1221 41.0595 93.6598 36.3322 94.3148C36.0262 94.3588 35.7231 94.3794 35.426 94.3794L35.429 94.3735ZM32.6806 90.3615C32.7341 90.6904 32.8232 90.9783 32.9807 91.2015C33.5541 92.0033 34.4158 92.253 35.12 92.3058C34.7842 92.2148 34.4277 92.0709 34.0592 91.8682C33.361 91.4893 32.9421 90.9548 32.6806 90.3615ZM38.9053 85.0924C38.9053 85.0924 38.8964 85.1071 38.8935 85.113C38.7895 85.3479 38.7538 86.3142 38.7271 86.9516C38.6617 88.6874 38.5904 90.62 37.6188 91.6744C38.837 90.7374 38.9261 88.8284 38.8964 86.1351C38.8935 85.8414 38.8905 85.5506 38.8905 85.2657C38.8905 85.204 38.8964 85.1453 38.9053 85.0895V85.0924ZM34.5049 72.1224C33.8215 72.1224 33.3343 72.2399 33.1263 72.4572C32.7905 72.8126 32.8589 73.773 32.9272 74.704C32.9955 75.6439 33.0728 76.7071 32.8054 77.694C32.1428 80.1259 30.2531 80.3726 29.0022 80.5341C28.0573 80.6575 27.4601 80.7603 27.056 81.2801C26.6638 81.7912 26.6876 81.9968 26.6876 81.9997C26.851 82.4461 28.9755 82.8309 29.7717 82.9777C30.8355 83.1716 31.6733 83.3243 32.226 83.6621C33.9671 84.7194 34.1395 86.4787 34.2761 87.8914C34.4009 89.1779 34.5138 89.7741 35.0516 90.0649C35.6399 90.3821 35.94 90.385 36.0173 90.3439C36.5283 90.059 36.6115 87.8298 36.6472 86.8781C36.6918 85.6974 36.7274 84.7664 37.0513 84.1584C37.8268 82.7017 39.2559 82.3345 40.4028 82.0379C41.7399 81.6942 42.0875 81.5151 42.1767 80.8337C42.2985 79.9203 42.1499 79.7147 40.1651 79.4033C39.0539 79.2271 37.7941 79.0303 36.9384 78.1698C35.9846 77.2152 35.8717 75.779 35.7737 74.5161C35.6043 72.372 35.3815 72.1371 34.5762 72.1253C34.5525 72.1253 34.5257 72.1253 34.502 72.1253L34.5049 72.1224ZM30.4759 85.2099C30.987 85.4449 31.4654 85.7885 31.8605 86.3084C31.8784 86.3319 31.8962 86.3553 31.911 86.3759C31.7625 85.9647 31.5307 85.6475 31.1385 85.4096C31.0316 85.345 30.779 85.2745 30.473 85.207L30.4759 85.2099ZM25.2258 83.4741C25.6447 84.1555 26.2895 84.3846 27.264 84.5373C26.4499 84.3023 25.716 83.9793 25.2258 83.4741ZM44.2863 80.4812C44.2863 80.6751 44.2714 80.8807 44.2417 81.101C44.2268 81.2214 44.206 81.333 44.1793 81.4446C44.1882 81.4211 44.1971 81.3947 44.206 81.3712C44.3071 81.0863 44.3308 80.7896 44.2833 80.4812H44.2863Z" fill="#1B5FFF"/>
<path d="M55.3513 72.8654C55.8208 62.4065 70.9028 62.8706 70.5552 73.4704C70.2224 83.5563 54.9175 82.728 55.3513 72.8654ZM57.5917 72.8566C57.5649 80.9217 70.0768 80.4224 69.9758 72.7802C69.8777 65.3436 57.6184 64.9588 57.5917 72.8566Z" fill="#1B5FFF"/>
<path d="M63.0793 81.6766C61.3233 81.6766 59.5584 81.2096 58.0847 80.2903C55.5086 78.6808 54.1716 76.0286 54.3112 72.8214C54.5727 66.9766 59.0503 64.0836 63.32 64.2481C67.5778 64.4096 71.7851 67.6433 71.5919 73.5057C71.485 76.7394 69.9696 79.2858 67.3223 80.6721C66.0357 81.3447 64.562 81.6795 63.0793 81.6795V81.6766ZM56.3911 72.9095C56.2841 75.3502 57.2795 77.3532 59.1959 78.5516C59.9476 79.0215 60.7944 79.3387 61.6739 79.5002C61.0203 79.3387 60.3933 79.0949 59.8169 78.766C57.7044 77.5676 56.5426 75.4647 56.5515 72.8537C56.5604 70.4629 57.5291 68.733 58.9315 67.6169C57.5261 68.686 56.504 70.4218 56.3911 72.9065V72.9095ZM58.6314 72.8595C58.6225 75.2209 59.8347 76.4075 60.8509 76.9832C62.5356 77.9406 64.9245 77.9054 66.6567 76.898C68.1483 76.0316 68.9564 74.5748 68.9327 72.7949C68.8911 69.5642 66.1754 68.0986 63.6617 68.0986H63.629C61.148 68.1103 58.6403 69.5877 58.6284 72.8595H58.6314Z" fill="#1B5FFF"/>
<path d="M64.0152 88.517C64.5589 94.7083 54.4329 94.955 53.9456 89.0281C53.4286 82.7516 63.4328 81.894 64.0152 88.517ZM63.4595 88.3379C62.0957 85.1835 55.6868 84.69 56.2781 88.9928C56.8782 93.3808 62.3899 91.1516 63.4595 88.3379Z" fill="#1B5FFF"/>
<path d="M59.1306 94.35C58.1085 94.35 57.0775 94.1356 56.1475 93.7009C54.2578 92.8198 53.0812 91.1457 52.9118 89.1074C52.6028 85.3656 55.4403 83.1598 58.3967 82.9131C61.4422 82.6635 64.7047 84.4727 65.0523 88.423C65.2306 90.4437 64.458 92.156 62.8773 93.2428C61.8166 93.9741 60.4825 94.3471 59.1306 94.3471V94.35ZM56.6704 85.5447C55.5948 86.1703 54.8461 87.2952 54.9828 88.9458C55.0689 89.9826 55.5057 90.6934 56.0286 91.181C55.6245 90.6435 55.3571 89.9503 55.2442 89.1309C55.0333 87.5801 55.5651 86.2937 56.6675 85.5447H56.6704ZM59.19 86.8958C58.9107 86.8958 58.6463 86.9281 58.4027 86.9927C57.5261 87.2306 57.1696 87.8415 57.3092 88.8548C57.4875 90.1559 58.1263 90.3762 58.5928 90.4291C59.8437 90.57 61.5908 89.5538 62.298 88.3672C61.6591 87.4333 60.328 86.8987 59.19 86.8987V86.8958Z" fill="#1B5FFF"/>
<path d="M8.83956 25.3615C8.63157 30.2693 8.91978 34.296 9.91218 39.1069C6.97659 37.1597 6.34669 28.0607 8.83956 25.3615Z" fill="#1B5FFF"/>
<path d="M9.91205 40.1349C9.71 40.1349 9.50796 40.0761 9.33265 39.9616C7.2201 38.5606 6.5694 34.9569 6.38815 33.4707C6.04052 30.6276 6.27228 26.6156 8.06988 24.6713C8.36403 24.3511 8.83051 24.2483 9.2346 24.4128C9.63869 24.5773 9.89719 24.9738 9.87639 25.4055C9.6684 30.3486 9.97147 34.2578 10.9312 38.9013C11.0144 39.3096 10.842 39.7296 10.4914 39.9616C10.3161 40.0791 10.1141 40.1349 9.91205 40.1349Z" fill="#1B5FFF"/>
<path d="M91.4488 27.5848C92.7116 30.8978 90.8754 35.8262 87.916 37.518C88.1002 35.9643 89.5026 34.2725 90.0523 32.8011C90.6941 31.0917 91.0477 29.3588 91.4488 27.5819V27.5848Z" fill="#1B5FFF"/>
<path d="M87.9161 38.5489C87.717 38.5489 87.5179 38.4931 87.3456 38.3814C87.0158 38.167 86.8375 37.7882 86.885 37.4034C87.0217 36.2491 87.6427 35.1566 88.2399 34.0992C88.5757 33.5059 88.8936 32.9479 89.0778 32.4486C89.6245 30.9918 89.9543 29.5115 90.302 27.9461L90.4327 27.3645C90.5337 26.9211 90.914 26.595 91.3746 26.5627C91.8351 26.5304 92.26 26.8006 92.4204 27.2265C93.8526 30.983 91.9153 36.4195 88.436 38.4138C88.2756 38.5077 88.0943 38.5518 87.9161 38.5518V38.5489Z" fill="#1B5FFF"/>
<path d="M84.3268 23.9429C85.7411 26.6038 85.1855 31.3443 83.2096 33.5324C82.8917 32.0991 83.6226 30.1489 83.7801 28.7244C83.9346 27.3352 83.6167 25.1647 84.3238 23.9429H84.3268Z" fill="#1B5FFF"/>
<path d="M83.2096 34.5603C83.1204 34.5603 83.0343 34.5486 82.9451 34.528C82.5678 34.4311 82.2766 34.1315 82.1934 33.7526C81.9319 32.5749 82.2231 31.2356 82.4786 30.0519C82.5915 29.5262 82.7015 29.0298 82.746 28.6128C82.7876 28.228 82.7906 27.7434 82.7906 27.2294C82.7936 25.9518 82.7995 24.5038 83.4205 23.4318C83.6077 23.1058 83.9613 22.8943 84.3416 22.9149C84.7219 22.9208 85.0666 23.1322 85.2449 23.4641C86.8523 26.4893 86.2402 31.7173 83.9851 34.2167C83.786 34.437 83.5007 34.5603 83.2096 34.5603Z" fill="#1B5FFF"/>
<path d="M5.23264 45.498C2.63875 44.4494 0.39546 40.0908 1.20661 37.7206C2.5407 40.2994 3.85993 42.8429 5.23264 45.498Z" fill="#1B5FFF"/>
<path d="M5.23244 46.5259C5.10171 46.5259 4.968 46.5024 4.84024 46.4496C1.73232 45.1954 -0.769465 40.2847 0.222929 37.3917C0.356635 37.001 0.716155 36.7279 1.13213 36.6956C1.5481 36.6604 1.94328 36.8836 2.13344 37.2536L6.15947 45.031C6.35854 45.4128 6.29317 45.8768 5.99902 46.194C5.79698 46.4114 5.51768 46.5259 5.23244 46.5259Z" fill="#1B5FFF"/>
<path d="M41.3508 78.7454C40.501 78.9921 39.6424 79.2447 38.7748 79.4826C38.6619 78.6925 38.4925 77.9083 38.2459 77.1565C37.815 75.8318 36.9504 74.5454 36.9118 73.1268C36.8405 70.4717 32.8798 70.4864 32.7521 73.1268C32.7075 74.0314 32.6629 74.936 32.6213 75.8407C32.5946 76.3781 32.55 76.9244 32.5411 77.4619C31.8369 77.6176 31.1714 78.1404 30.8564 78.8394C30.4791 79.0127 30.1017 79.1771 29.766 79.3534C28.8389 79.838 27.9089 80.3226 26.9819 80.8072C25.5052 81.5797 25.6864 84.2906 27.4781 84.5637C28.6904 84.7488 29.8878 84.8192 31.0763 84.8075C31.6824 87.0808 32.8263 89.2101 34.407 91.0517C35.3935 92.2001 37.5863 91.6038 37.8834 90.1441C38.3172 88.0236 38.7569 85.856 38.9085 83.6797C40.091 83.386 41.2736 83.057 42.4561 82.7134C45.0173 81.9674 43.9269 77.9994 41.3508 78.7483V78.7454Z" fill="#1B5FFF"/>
<path d="M61.8971 86.279C61.2197 85.6651 59.9896 85.436 59.2141 86.0323C57.8087 86.0675 57.1669 87.2541 57.2857 88.3437C57.0302 88.705 56.8608 89.078 56.8608 89.5567C56.8608 90.0619 57.0867 90.664 57.4699 91.0106C58.2276 91.6978 59.6806 91.9034 60.4115 91.0106C60.9077 90.4026 61.4039 89.7946 61.9001 89.1867C62.2596 88.749 62.5092 88.3202 62.5092 87.7328C62.5092 87.2276 62.2834 86.6255 61.9001 86.279H61.8971Z" fill="#1B5FFF"/>
<path d="M121.776 18.1246C124.828 17.6135 127.555 17.079 129.151 20.0836C130.672 22.9502 129.059 29.1474 126.177 30.6599C123.336 32.149 118.787 30.3104 116.743 28.1311C113.424 24.589 115.605 22.4979 118.362 19.3523C117.052 13.8658 108.729 8.99033 103.972 6.89915C97.6378 4.11482 90.4534 3.2572 83.5749 3.19846C77.3413 3.14559 70.7778 3.82111 64.8591 5.86824C62.7554 6.59663 54.3201 12.1565 55.4759 6.8081C56.3405 2.79902 69.4883 1.15426 72.5635 0.743076C79.2577 -0.155664 86.1094 -0.305454 92.8095 0.64909C104.703 2.34084 115.18 8.00348 121.779 18.1246H121.776ZM125.945 20.7591C122.587 20.9677 120.112 22.2923 117.976 24.7682C119.952 26.7713 121.963 28.1899 124.837 27.67C126.135 25.5553 126.521 23.4671 125.945 20.7591Z" fill="#1B5FFF"/>
<path d="M42.34 125.779C39.244 125.788 36.4659 125.871 35.3903 122.649C34.3652 119.573 36.9888 113.723 40.0819 112.701C43.1333 111.693 47.3139 114.246 48.9659 116.727C51.6519 120.76 49.1531 122.469 45.9085 125.125C46.2888 130.749 53.6872 136.911 58.0311 139.748C63.8161 143.525 70.7599 145.54 77.5344 146.715C83.6759 147.781 90.2602 148.18 96.4403 147.123C98.6361 146.747 107.88 142.632 105.853 147.719C104.332 151.535 91.0891 151.018 87.9872 150.924C81.2335 150.721 74.4502 149.755 68.0026 147.725C56.5515 144.121 47.1594 136.835 42.3341 125.779H42.34ZM38.6646 122.505C42.0102 122.842 44.6724 121.941 47.192 119.844C45.5757 117.547 43.8286 115.82 40.9079 115.867C39.2767 117.741 38.5457 119.741 38.6646 122.505Z" fill="#1B5FFF"/>
<path d="M131.017 45.2718C134.066 39.6326 136.915 32.5455 144.432 32.5543C150.844 32.5602 160.15 35.5766 164.741 40.0614C170.356 45.5508 165.587 51.3133 166.666 57.6838C167.171 60.6649 170.439 63.6813 171.898 66.3422C173.681 69.5965 175.063 73.0769 175.904 76.6836C179.163 90.6993 174.715 106.847 163.576 116.375C161.217 118.393 158.587 120.082 155.782 121.427C152.273 123.113 148.244 123.418 144.786 124.981C139.325 127.445 139.64 135.927 132.969 137.974C126.376 139.998 116.167 135.918 110.902 132.106C104.534 127.495 106.706 120.413 107.464 113.761C96.9459 102.956 94.141 86.5463 99.0317 72.5071C103.89 58.562 116.52 48.2412 131.02 45.2689L131.017 45.2718ZM102.226 70.9152C95.9149 87.771 99.7151 106.941 115.543 117.209C128.067 125.336 145.734 125.451 158.246 117.274C171.679 108.495 177.443 91.1046 173.227 75.8965C169.094 60.9909 155.978 48.6494 140.112 47.2514C124.391 45.868 108.023 56.5795 102.229 70.9123L102.226 70.9152ZM145.478 39.5005C151.373 41.0689 157.529 41.8854 161.558 46.8754C162.055 46.6346 162.441 46.4466 163.035 46.1558C160.976 42.837 158.032 41.0424 154.344 39.7736C153.061 39.3331 144.01 36.3666 145.481 39.5005H145.478ZM111.811 123.436C108.418 126.44 125.963 135.113 128.462 131.798C129.65 130.223 121.456 129.151 120.642 128.899C117.014 127.78 114.821 125.509 111.811 123.436ZM130.821 131.469C130.901 133.877 132.262 131.88 132.877 132.071C132.39 131.921 132.318 129.747 130.821 131.469Z" fill="#1B5FFF"/>
<path d="M90.9111 81.1362C91.3152 80.0025 92.3849 79.7264 93.1782 80.6574C93.8022 81.3917 93.0237 83.5416 92.9078 84.3435C92.4859 87.2423 92.2601 90.0883 92.5602 93.0107C92.8157 95.4896 93.3802 97.942 94.2122 100.295C94.6906 101.649 97.3736 105.584 96.3366 106.765C94.0607 109.355 90.8487 97.5749 90.5605 96.0799C89.6365 91.3102 89.5741 85.8472 90.9141 81.1391L90.9111 81.1362Z" fill="#1B5FFF"/>
<path d="M183.53 79.233C180.384 80.8543 180.901 76.0522 180.473 74.0315C180.075 72.143 179.507 70.2985 178.77 68.5098C178.215 67.1588 175.838 64.2246 175.882 62.8942C176.034 58.1508 180.229 65.7196 180.734 66.8827C182.446 70.8007 183.379 74.9743 183.53 79.2301V79.233Z" fill="#1B5FFF"/>
<path d="M182.339 85.1923C181.151 84.4169 181.382 81.5915 183.171 82.3874C184.874 83.1422 183.626 84.8898 182.339 85.1923Z" fill="#1B5FFF"/>
<path d="M140.483 78.4253C144.801 82.5137 145.641 85.5124 143.57 89.5009C144.64 90.5553 150.811 95.3163 149.89 96.8847C148.524 99.2167 143.258 92.623 142.079 91.4688C137.583 94.1356 131.044 93.231 129.588 87.4597C128.257 82.1818 132.859 77.7703 137.943 77.7938C138.926 75.8348 142.287 63.3699 144.795 63.693C147.311 64.019 141.125 76.7012 140.483 78.4223V78.4253ZM133.204 86.8723C135.278 87.0132 134.377 82.7134 137.218 82.4373C138.377 82.3228 141.039 84.643 140.977 82.2405C140.89 78.8717 129.609 81.0158 133.204 86.8752V86.8723Z" fill="#1B5FFF"/>
<path d="M118.012 75.9112C119.581 72.651 121.964 69.8373 125.063 67.9018C126.997 66.6947 133.142 64.8179 129.481 68.3659C127.027 70.742 123.815 71.3176 121.687 74.3957C121.016 75.3649 120.234 78.2638 118.88 78.4136C117.017 78.6221 117.593 77.0361 118.015 75.9112H118.012Z" fill="#1B5FFF"/>
<path d="M126.016 59.7926C125.056 62.1129 122.275 58.3622 123.232 57.2197C124.593 55.5926 126.56 58.4826 126.016 59.7926Z" fill="#1B5FFF"/>
<path d="M111.743 97.9832C111.199 99.1815 107.883 100.171 107.96 98.083C108.029 96.3003 112.8 95.6482 111.743 97.9832Z" fill="#1B5FFF"/>
<path d="M166.122 73.2502C165.587 74.4309 162.263 75.3942 162.367 73.3354C162.459 71.4938 167.165 70.9417 166.122 73.2502Z" fill="#1B5FFF"/>
<path d="M149.614 110.51C150.942 110.897 151.979 114.475 149.822 114.281C148.215 114.134 147.282 109.825 149.614 110.51Z" fill="#1B5FFF"/>
<path d="M164.758 96.7907C162.482 95.9419 163.287 93.8977 165.563 94.6819C167.83 95.4631 167.313 97.7452 164.758 96.7907Z" fill="#1B5FFF"/>
<path d="M146.441 57.3049C147.294 54.9787 149.54 55.9245 148.562 58.186C147.65 60.2977 145.603 59.5429 146.441 57.3049Z" fill="#1B5FFF"/>
<path d="M108.622 76.2813C106.305 75.4413 107.125 73.259 109.446 74.1783C111.555 75.0154 110.994 77.1418 108.622 76.2813Z" fill="#1B5FFF"/>
<path d="M127.888 113.488C127.048 115.729 124.831 115.385 125.627 112.953C126.311 110.862 128.593 111.126 127.888 113.488Z" fill="#1B5FFF"/>
<path d="M118.146 80.4019C119.578 80.957 118.868 83.4124 117.311 83.0511C115.685 82.6752 116.535 79.7763 118.146 80.4019Z" fill="#1B5FFF"/>
<path d="M63.5608 67.4701C60.3192 66.7388 58.272 69.388 57.6689 72.2223C57.3688 73.635 57.7491 74.5954 58.4949 75.2327C58.5008 75.2885 58.5038 75.3443 58.5127 75.4031C58.8009 77.321 60.5866 78.4341 62.4466 78.0141C62.7645 78.5193 63.3261 78.8659 64.1372 78.8189C67.162 78.6456 69.9668 76.5603 69.9282 73.3471C69.8896 69.9989 66.5172 68.1368 63.5638 67.473L63.5608 67.4701ZM66.5142 76.2431C64.1402 76.7747 65.923 73.7407 65.5813 72.6393C64.7493 69.9402 60.6609 71.6554 60.3935 69.6171C65.501 64.9824 69.8391 75.5 66.5142 76.2431Z" fill="#1B5FFF"/>
</g>
<defs>
<clipPath id="clip0_51_7517">
<rect width="184" height="151" fill="white"/>
</clipPath>
</defs>
</svg>
