<svg width="174" height="150" viewBox="0 0 174 150" fill="none" xmlns="http://www.w3.org/2000/svg">
<ellipse cx="86.6334" cy="74.9923" rx="46.3291" ry="73.5654" transform="rotate(62.5923 86.6334 74.9923)" fill="#DDE7FF"/>
<g clip-path="url(#clip0_51_7516)">
<path d="M70.7023 84.5208C65.5477 83.6796 60.97 82.8123 56.762 79.4436C54.7912 77.8653 53.0828 75.9558 51.1157 74.3589C48.7011 72.3936 44.6706 70.8674 42.6406 68.6563C39.0538 64.7442 43.9163 66.3001 46.353 67.7928C51.5816 70.9977 55.527 76.0972 60.7555 79.0974C64.1648 81.0516 70.3251 82.5033 74.0376 81.141C76.0343 80.4077 77.7685 78.5167 79.8503 77.6978C83.1339 76.4062 86.6948 76.0972 90.1891 76.1568C101.038 76.3392 113.307 85.0382 123.683 79.0788C127.857 76.6817 131.156 72.3935 134.883 69.3487C136.099 68.3548 144.693 62.1014 141.927 67.2791C141.276 68.5 137.593 70.2942 136.362 71.3215C134.088 73.2199 132.113 75.3975 129.958 77.4149C126.186 80.9362 122.067 83.3409 116.838 83.7168C105.327 84.5432 95.3362 76.5439 83.5443 79.2947C78.2455 80.5305 74.6625 83.687 71.6156 88.1054C69.996 90.4579 63.0961 98.6879 65.8953 100.929C69.874 104.111 77.9054 97.5489 80.1314 94.7684C83.7847 90.2085 87.4306 85.2988 93.2581 90.4579C97.5548 94.2621 99.2743 99.2389 105.032 101.379C111.458 103.773 117.156 101.777 122.455 97.8951C128.364 100.821 111.913 105.064 109.72 105.064C110.497 107.499 116.217 110.395 118.269 111.939C121.715 114.53 125.165 117.121 128.615 119.712C139.291 109.929 149.692 100.132 161.909 92.2893C165.23 94.6306 160.057 96.7375 158.138 98.1333C154.847 100.53 151.556 102.928 148.372 105.47C142.038 110.532 136.048 116.041 130.383 121.852C130.619 127.085 129.654 128.344 123.59 130.61C127.336 137.087 122.695 143.899 115.322 142.168C113.107 149.784 105.298 148.414 100.195 144.729C97.1629 147.346 97.4772 150.543 92.4742 149.926C88.0333 149.375 83.3114 145.433 79.695 143.088C75.9012 147.335 70.2696 151.649 66.5572 144.841C61.092 145.831 58.8956 144.171 57.2797 139.082C51.3856 141.182 47.5141 137.72 46.671 131.843C36.6651 129.349 38.7099 120.11 44.5819 113.741C40.4146 108.831 35.26 105.332 29.9095 101.867C28.5524 100.988 19.6114 96.4843 22.5954 94.8651C24.3888 93.8899 31.8581 99.8493 33.5443 100.959C38.4659 104.201 42.6628 108.012 46.9114 112.081C52.4912 109.911 54.7283 110.093 58.7144 114.534C66.3575 111.589 72.174 117.24 69.837 124.119C74.3556 125.061 77.029 129.282 76.1305 133.864C79.0516 136.105 79.9391 137.046 81.2296 140.568C81.1039 140.683 80.9744 140.802 80.8487 140.918C82.986 142.138 98.2241 152.516 97.2442 143.646C96.7192 138.878 81.2 135.141 82.3685 130.912C83.0377 128.492 96.9669 139.187 98.8195 140.497C102.077 142.794 113.085 149.717 112.486 140.277C107.613 136.875 102.713 133.51 97.9283 129.985C96.6785 129.066 89.3349 124.618 94.1419 123.992C95.5988 123.802 100.158 128.206 101.389 129.084C104.011 130.953 106.633 132.822 109.254 134.69C112.29 136.849 118.413 142.95 121.819 138.014C125.628 132.498 116.657 129.337 113.362 127.324C109.062 124.692 104.921 121.669 101.097 118.375C97.8507 115.58 97.2516 113.071 101.656 115.423C106.341 117.929 110.434 122.38 115.03 125.228C118.003 127.071 125.565 130.506 127.721 125.228C129.311 121.331 120.458 116.797 118.014 114.992C113.115 111.377 108.167 107.826 103.301 104.167C99.1707 101.063 96.3753 97.5638 92.8292 93.9197C88.2552 89.2221 86.1142 91.2322 82.6236 95.8255C79.7135 99.6558 76.3228 102.31 71.5638 103.33C67.9845 104.096 62.8558 104.402 62.3677 99.6148C61.9351 95.3676 68.4097 87.9081 70.6912 84.5208H70.7023ZM49.4295 131.515C49.9768 145.224 67.8255 128.213 67.5482 121.04C67.2967 114.511 60.5337 116.079 57.4905 119.235C54.1773 122.671 50.8124 126.892 49.4295 131.515ZM41.8271 123.873C43.6907 129.635 45.95 130.216 49.4813 125.455C51.1748 123.17 56.0927 118.747 55.5714 115.669C54.8762 111.571 50.6128 113.078 48.0799 114.582C44.4118 116.76 43.0066 119.931 41.8308 123.869L41.8271 123.873ZM59.8755 137.772C63.1738 153.287 81.8286 126.575 68.5132 126.877C65.6882 130.439 62.9371 133.908 59.8755 137.772ZM74.6736 137.18C72.7767 139.213 70.9796 141.133 69.2084 143.028C70.4693 153.849 83.463 134.467 74.6736 137.18Z" fill="#1B5FFF" stroke="#1B5FFF" stroke-width="1.5"/>
<path d="M86.5838 66.9329C83.474 70.5361 73.176 80.1508 68.1804 75.0252C68.724 72.7621 69.2897 70.417 69.8999 67.897C59.3762 67.052 53.5672 63.836 52.4912 52.5276C51.4891 41.9711 51.075 30.2682 52.6687 19.7564C54.303 8.93933 60.981 7.87102 70.4471 7.59557C81.1704 7.28662 91.8826 7.22334 102.61 7.33873C109.62 7.41318 123.42 4.7815 126.826 13.0823C128.453 17.054 128.042 22.2019 128.112 26.4156C128.212 32.3973 128.227 38.3902 128.131 44.372C128.009 51.906 128.793 62.4289 120.288 65.6264C115.611 67.3833 109.158 66.9366 104.244 67.1563C98.3387 67.4243 92.4853 67.3349 86.5875 66.9329H86.5838ZM85.016 64.4092C95.1698 64.4092 105.582 65.0867 115.677 63.7541C127.218 62.2316 125.25 50.3314 125.424 41.1931C125.528 35.6655 125.735 30.1118 125.535 24.5879C125.406 20.9512 125.898 15.2673 123.365 12.3899C120.688 9.3525 115.171 10.164 111.495 10.0523C105.52 9.8699 99.5294 10.0151 93.5539 10.0672C87.4491 10.123 81.3442 10.19 75.2393 10.2459C70.6764 10.2905 63.8615 9.12172 59.7904 11.5784C53.0754 15.632 54.6728 28.4963 54.6247 34.962C54.5656 42.9575 52.3026 58.7736 60.6298 63.5754C63.3993 65.1723 70.2992 63.4637 71.9816 65.1276C73.9488 67.0706 71.9188 70.9753 71.3493 73.447C77.469 72.3787 81.799 69.345 85.016 64.4129V64.4092Z" fill="#1B5FFF" stroke="#1B5FFF" stroke-width="1.5"/>
<path d="M145.258 95.5575C147.595 97.7685 144.992 99.0862 143.195 100.787C142.045 101.878 137.726 107.275 136.162 107.112C131.514 106.628 143.702 96.6407 145.258 95.5575Z" fill="#1B5FFF" stroke="#1B5FFF" stroke-width="1.5"/>
<path d="M42.1596 35.874C39.2717 35.5092 30.8003 33.3093 37.9442 32.5834C39.1275 32.4643 44.4226 32.3861 45.1547 33.3316C47.0072 35.7325 43.5129 35.7511 42.1744 35.7511C42.1707 35.7921 42.167 35.833 42.1596 35.874Z" fill="#1B5FFF" stroke="#1B5FFF" stroke-width="1.5"/>
<path d="M142.859 35.766C141.764 35.766 137.9 35.6171 139.793 33.4396C140.588 32.5276 145.096 32.7398 146.246 32.7547C147.133 32.7658 151.633 31.8762 149.877 34.5898C149.027 35.9037 144.238 35.7065 142.87 35.874C142.866 35.8405 142.863 35.8032 142.859 35.7697V35.766Z" fill="#1B5FFF" stroke="#1B5FFF" stroke-width="1.5"/>
<path d="M49.089 47.9901C48.3384 48.7643 38.7614 55.7995 39.4788 51.5598C39.8116 49.6019 49.0077 44.6921 49.089 47.9901Z" fill="#1B5FFF" stroke="#1B5FFF" stroke-width="1.5"/>
<path d="M145.617 51.798C145.721 55.591 135.086 48.541 136.188 47.1488C137.944 44.9378 144.829 50.0039 145.617 51.798Z" fill="#1B5FFF" stroke="#1B5FFF" stroke-width="1.5"/>
<path d="M39.1499 16.6594C40.5661 12.7621 50.9122 20.512 48.2869 21.6101C45.7059 22.6895 40.5624 18.4833 39.1499 16.6594Z" fill="#1B5FFF" stroke="#1B5FFF" stroke-width="1.5"/>
<path d="M145.968 16.8902C144.911 17.7873 135.16 23.9812 136.173 20.2403C136.806 17.9064 144.256 14.0649 145.968 16.8902Z" fill="#1B5FFF" stroke="#1B5FFF" stroke-width="1.5"/>
<path d="M152.218 90.6776C152.71 91.1987 153.105 91.6156 153.46 91.9915C152.299 95.5836 145.499 94.8689 152.218 90.6776Z" fill="#1B5FFF" stroke="#1B5FFF" stroke-width="1.5"/>
<path d="M87.9003 49.412C85.1234 49.412 63.3662 50.484 63.4328 48.1092C63.5104 45.4217 85.3933 46.7319 88.0815 46.7357C91.0323 46.7357 112.227 45.1053 112.601 48.0869C112.878 50.3091 90.4184 49.4232 87.9003 49.4232V49.4157V49.412Z" fill="#1B5FFF" stroke="#1B5FFF" stroke-width="1.5"/>
<path d="M78.1899 36.5477C85.7738 35.8442 93.5722 36.2983 101.189 36.2871C103.415 36.2834 121.471 35.2486 119.6 38.554C118.28 40.8767 100.831 39.0342 97.9059 39.0379C93.6166 39.0379 89.3236 39.0454 85.0343 39.0491C82.4052 39.0491 77.7425 40.3519 78.1936 36.5514L78.1899 36.5477Z" fill="#1B5FFF" stroke="#1B5FFF" stroke-width="1.5"/>
<path d="M90.614 26.4379V28.6266C87.5967 28.7904 64.4935 29.9183 63.9056 27.6104C63.1032 24.4539 72.3659 25.8795 73.9115 25.9093C79.3028 26.0173 85.3337 25.4403 90.614 26.4379Z" fill="#1B5FFF" stroke="#1B5FFF" stroke-width="1.5"/>
<path d="M108.519 28.8462C107.003 28.8462 98.7752 29.8996 97.9765 27.9827C96.8524 25.2951 106.411 26.2704 107.605 26.2704C109.672 26.2704 118.136 24.9862 119.297 26.4863C122.174 30.2049 110.053 28.943 108.519 28.943C108.519 28.9095 108.519 28.8797 108.519 28.8462Z" fill="#1B5FFF" stroke="#1B5FFF" stroke-width="1.5"/>
<path d="M68.5686 39.0044C62.5821 39.0044 62.2715 36.276 68.6019 36.2797C74.9841 36.2871 74.5182 39.0081 68.5686 39.0081C68.5686 39.0081 68.5686 39.0082 68.5686 39.0044Z" fill="#1B5FFF" stroke="#1B5FFF" stroke-width="1.5"/>
<path d="M117.888 49.4641C115.873 49.2147 115.263 46.7952 117.789 46.8548C120.17 46.9106 120.251 49.1812 117.888 49.4641Z" fill="#1B5FFF" stroke="#1B5FFF" stroke-width="1.5"/>
</g>
<defs>
<clipPath id="clip0_51_7516">
<rect width="141" height="143" fill="white" transform="translate(22 7)"/>
</clipPath>
</defs>
</svg>
