<svg width="185" height="161" viewBox="0 0 185 161" fill="none" xmlns="http://www.w3.org/2000/svg">
<ellipse cx="92.7461" cy="80.4923" rx="49.3344" ry="78.3376" transform="rotate(62.5923 92.7461 80.4923)" fill="#DDE7FF"/>
<g clip-path="url(#clip0_51_7513)">
<path d="M94.1776 147.358C66.996 146.863 41.3466 130.644 30.6484 105.216C19.6815 79.1503 24.6388 49.7085 45.9077 30.653C67.0004 11.7567 100.284 6.57023 125.511 19.9392C150.051 32.9453 164.082 60.94 160.428 88.5276C155.941 122.359 126.717 144.933 94.1776 147.358ZM90.902 113.495C101.354 113.495 112.413 114.527 122.808 113.509C132.185 112.593 132.916 105.707 129.966 98.259C124.106 83.4827 108.565 73.0257 92.7599 73.0965C77.21 73.1673 62.1488 83.1818 55.9456 97.5199C52.7273 104.959 50.6845 113.411 61.0746 113.504C71.0156 113.593 80.961 113.5 90.902 113.5V113.495ZM73.8905 50.1953C75.2773 60.6701 81.6082 70.1757 93.2706 70.0562C102.6 69.9589 111.009 62.5951 112.056 53.2222C114.87 28.0287 74.4012 25.4355 73.8905 50.1953ZM59.5601 125.621C64.7595 130.006 72.9967 132.011 79.5258 133.1C84.4302 133.918 96.238 135.759 100.35 132.038C100.266 131.608 100.178 131.139 100.059 130.537C92.8524 130.537 86.2397 131.825 78.9975 130.449C75.3697 129.759 71.786 128.789 68.3564 127.4C66.5602 126.67 61.5412 122.837 59.7054 124.293C59.6613 124.674 59.6085 125.156 59.5557 125.621H59.5601ZM144.072 74.1585C149.782 75.7561 142.87 55.7225 141.554 53.0231C139.608 49.0226 137.125 45.3407 134.162 42.0305C133.858 41.6898 125.955 33.9897 127.439 39.0036C138.115 48.1375 143.473 59.9797 144.072 74.1585ZM146.291 80.5532C143.9 80.7656 144.006 82.9473 146.348 82.9119C147.088 82.1861 147.105 81.4382 146.291 80.5532Z" fill="#1B5FFF"/>
<path d="M48.6241 14.6819C53.5329 15.4696 46.3347 19.2046 45.5687 19.6737C42.368 21.6518 39.4711 24.0902 36.9264 26.8649C34.3993 29.6219 32.2245 32.7063 30.5119 36.0386C29.3584 38.2734 28.8477 42.0748 26.4175 43.1457C22.3495 40.5126 30.5647 29.8121 32.6383 27.241C36.8252 22.0501 42.3196 17.0804 48.6197 14.6819H48.6241Z" fill="#1B5FFF"/>
<path d="M152.824 127.48C154.016 127.37 154.885 127.848 155.431 128.913C149.791 138.959 141.356 145.619 130.362 149.004C129.35 148.373 129.014 147.432 129.354 146.181C139.564 143.057 147.502 136.795 152.829 127.48H152.824Z" fill="#1B5FFF"/>
<path d="M157.579 125.183C154.678 123.837 155.963 120.585 158.732 119.434C162.096 120.695 158.891 123.51 157.579 125.183Z" fill="#1B5FFF"/>
<path d="M57.1874 11C58.3012 11.2168 58.856 11.7789 58.8824 12.9472C56.4521 16.6689 49.9319 14.1508 57.1874 11Z" fill="#1B5FFF"/>
<path d="M104.26 106.964C103.454 109.734 76.3296 109.508 75.7221 107.119C74.934 104.025 88.0581 105.229 89.9732 105.224C92.4827 105.224 103.828 103.485 104.26 106.959V106.964Z" fill="#1B5FFF"/>
<path d="M109.591 106.658C111.15 104.583 112.576 104.685 113.668 106.862C113.127 109.079 110.04 108.743 109.591 106.658Z" fill="#1B5FFF"/>
</g>
<defs>
<clipPath id="clip0_51_7513">
<rect width="136" height="138" fill="white" transform="translate(25 11)"/>
</clipPath>
</defs>
</svg>
