<svg width="187" height="162" viewBox="0 0 187 162" fill="none" xmlns="http://www.w3.org/2000/svg">
<ellipse cx="93.2541" cy="80.7227" rx="49.8692" ry="79.1867" transform="rotate(62.5923 93.2541 80.7227)" fill="#DDE7FF"/>
<g clip-path="url(#clip0_51_7518)">
<path d="M127.623 85.3395C137.001 85.3395 148.259 83.6606 157.417 85.6348C161.167 86.445 164.103 88.9925 164.835 92.8584C165.767 97.7646 162.539 101.078 159.734 104.635C163.175 110.121 160.517 116.706 155.333 119.813C158.661 125.956 156.334 132.053 149.906 134.601C150.349 140.544 149.455 144.561 143.553 147.005C137.496 149.515 129.507 148.938 123.086 148.935C108.861 148.928 96.9394 146.803 84.8907 139.164C83.5225 143.253 81.3087 145.405 77.0496 145.834C72.7904 146.264 65.6471 146.222 61.522 144.949C52.7906 142.257 55.9325 127.219 55.8397 120.39C55.7607 114.663 55.6885 108.933 55.6025 103.206C55.5166 97.4213 55.1694 94.0498 60.8105 91.4714C67.8197 88.2715 81.7969 88.2269 85.1072 96.8892C89.4042 94.3485 93.0927 88.9376 96.41 85.2193C100.27 80.8899 104 76.4403 107.427 71.7607C110.614 67.4142 113.673 62.8891 116.128 58.0859C118.276 53.8801 119.129 47.1817 122.34 43.8033C130.49 35.2234 136.152 49.815 136.585 56.2662C136.936 61.4642 135.86 66.6966 134.127 71.5788C132.573 75.9563 128.228 80.9037 127.623 85.3361V85.3395ZM146.719 135.256C140.958 134.886 134.216 136.331 128.603 135.14C120.556 133.43 130.153 132.431 133.412 132.427C138.606 132.421 146.389 134.003 150.981 131.033C154.598 128.695 155.663 123.652 152.04 120.723C149.036 120.723 126.936 122.357 126.695 119.223C127.891 115.906 144.038 117.918 147.204 117.935C150.796 117.956 154.147 118.22 156.643 115.209C159.046 112.308 159.005 108.425 156.798 105.431C151.229 105.431 145.66 105.431 140.091 105.431C138.764 105.431 130.442 106.104 132.7 103.258C134.24 101.315 143.02 102.698 145.272 102.695C149.27 102.695 155.103 103.79 158.623 101.507C161.69 99.5191 163.257 94.836 161.473 91.5263C159.462 87.7943 154.99 88.1823 151.353 88.1308C147.726 88.0793 124.1 90.1839 123.319 86.8398C124.327 83.1216 127.627 79.5715 129.332 76.0318C131.449 71.6371 133.075 66.9713 133.646 62.1097C134.172 57.6224 134.206 50.433 131.198 46.7147C128.513 43.3947 125.251 43.8719 123.247 47.7001C121.044 51.9128 120.091 56.8018 117.816 61.0728C115.265 65.8589 112.054 70.1402 108.699 74.3804C101.542 83.4203 94.069 92.0722 86.0835 100.381C87.2179 109.41 87.5857 118.433 86.6301 127.507C86.2073 131.497 85.0694 134.377 87.8332 137.564C90.6039 140.757 96.2519 142.731 100.16 143.774C107.41 145.707 153.659 151.52 146.719 135.263V135.256ZM58.2426 117.908C58.3079 117.908 58.3767 117.908 58.442 117.908C58.5142 121.582 58.5692 125.255 58.6414 128.929C58.6964 131.857 57.9332 136.434 59.0195 139.109C60.8552 143.627 66.9603 142.851 71.0476 142.957C77.1286 143.115 80.9581 143.575 82.3159 136.994C83.5603 130.968 84.2857 124.507 84.4507 118.365C84.6088 112.442 84.8976 104.295 82.7594 98.6573C80.745 93.3425 74.5608 92.1134 69.4044 92.3331C65.3962 92.5048 59.9167 93.3563 58.3595 97.3904C57.3179 100.092 58.246 104.466 58.246 107.385C58.246 110.89 58.2392 114.399 58.2392 117.904L58.2426 117.908Z" fill="#1B5FFF" stroke="#1B5FFF" stroke-width="1.5"/>
<path d="M84.8702 70.8991C84.8702 74.075 86.754 76.6808 86.314 79.582C80.6661 81.2265 72.6565 77.3503 66.6305 70.1198C60.0372 70.573 53.4027 70.1987 46.7991 70.0236C41.5362 69.8829 35.2935 70.4597 30.2437 68.7945C20.0651 65.4436 21.4504 53.0081 21.1204 44.3287C20.9004 38.4578 21.0104 32.5834 21.2132 26.7124C21.3851 21.7066 20.6426 15.3962 23.1039 10.7956C25.8608 5.6456 30.9381 5.98206 36.0876 5.831C42.0587 5.65933 48.0332 5.4808 54.0042 5.38467C66.3073 5.18897 79.5729 4.35811 91.766 5.9752C101.267 7.23522 103.151 14.9705 103.842 23.1864C104.798 34.5026 105.179 47.1303 103.22 58.3916C101.536 68.0804 93.801 70.8957 84.8668 70.8957L84.8702 70.8991ZM81.828 68.1284C93.526 68.1284 100.346 65.8762 100.982 52.9463C101.546 41.5031 103.368 27.3922 100.181 16.258C97.1183 5.54947 82.9108 8.63258 74.3444 8.52958C61.7182 8.37852 49.0473 8.00429 36.4279 8.53645C31.8388 8.72871 27.0571 8.27552 25.0427 13.1852C23.238 17.5832 23.9667 23.7701 23.867 28.3844C23.7261 35.0313 23.647 41.6885 23.9736 48.332C24.1867 52.7197 23.7673 58.9546 26.428 62.7725C29.3156 66.9165 33.9907 66.7414 38.5214 67.0573C44.2965 67.459 50.0717 67.7886 55.864 67.7508C61.8797 67.713 66.3005 65.9346 70.4977 70.4768C74.0419 74.3119 78.0776 76.1555 83.1171 77.2336C83.0964 74.0784 81.1198 71.4931 81.8211 68.125L81.828 68.1284Z" fill="#1B5FFF" stroke="#1B5FFF" stroke-width="1.5"/>
<path d="M153.089 27.5706C150.415 30.6949 147.214 33.3969 144.199 36.1848C143.433 36.892 139.294 41.115 139.229 37.4105C139.194 35.505 144.557 32.0682 145.939 30.7807C147.995 28.8718 150.58 24.5733 153.089 27.5672V27.5706Z" fill="#1B5FFF" stroke="#1B5FFF" stroke-width="1.5"/>
<path d="M122.408 30.5747C119.229 34.0836 115.877 21.8473 116.379 19.8903C117.946 13.7721 122.106 29.0332 122.408 30.5747Z" fill="#1B5FFF" stroke="#1B5FFF" stroke-width="1.5"/>
<path d="M136.245 24.4497C135.544 26.7157 132.096 38.9692 129.792 33.9153C129.239 32.7068 132.209 27.0796 132.893 25.7578C133.921 23.7665 134.309 21.9606 136.245 24.4497Z" fill="#1B5FFF" stroke="#1B5FFF" stroke-width="1.5"/>
<path d="M137.778 16.8209C137.809 18.7058 135.815 20.6559 135.021 18.0981C134.272 15.681 137.702 13.9919 137.778 16.8209Z" fill="#1B5FFF" stroke="#1B5FFF" stroke-width="1.5"/>
<path d="M53.5953 38.4405C53.9769 40.7099 56.1735 46.4607 53.6366 47.4735C51.9797 48.1362 46.3489 43.4874 45.0014 42.6532C43.6023 43.6007 38.1984 48.6615 36.2287 47.9405C33.8568 47.0718 35.9812 40.8404 36.239 38.9932C34.644 37.1324 32.1895 36.5178 30.8901 34.142C33.898 32.1438 37.5762 31.6357 40.0478 29.0263C42.3304 26.6162 42.8254 20.9134 46.4967 23.3785C49.3705 25.3081 49.484 29.1774 53.0591 30.9387C59.0783 33.9051 59.9342 33.8364 53.5988 38.4405H53.5953Z" fill="#1B5FFF" stroke="#1B5FFF" stroke-width="1.5"/>
<path d="M71.6595 38.8559C69.7757 37.3898 68.0706 36.0612 66.1284 34.5505C68.5003 32.1506 71.8451 32.0888 74.4233 29.84C76.5099 28.0169 78.4865 21.8026 81.1403 22.6403C82.505 23.0695 83.3816 26.1904 84.1379 27.2616C85.5335 29.2323 86.5923 30.0872 88.7992 31.1138C89.7686 31.5635 94.0347 32.2124 94.0381 33.8879C94.0415 35.6629 90.2636 37.5066 89.0742 38.3752C89.4764 41.2214 89.8855 44.0642 90.3014 46.907C88.0773 48.912 82.2472 43.7758 80.384 42.636C78.734 43.7552 73.2751 48.8949 71.2848 47.6692C69.6244 46.6495 71.4567 40.4112 71.656 38.8559H71.6595Z" fill="#1B5FFF" stroke="#1B5FFF" stroke-width="1.5"/>
</g>
<defs>
<clipPath id="clip0_51_7518">
<rect width="144" height="144" fill="white" transform="translate(21 5)"/>
</clipPath>
</defs>
</svg>
