<svg width="188" height="181" viewBox="0 0 188 181" fill="none" xmlns="http://www.w3.org/2000/svg">
<ellipse cx="93.2542" cy="90.7226" rx="49.8691" ry="79.1866" transform="rotate(62.5923 93.2542 90.7226)" fill="#DDE7FF"/>
<g clip-path="url(#clip0_51_7514)">
<path d="M88.3053 115.728C75.7998 115.671 63.8984 108.367 58.8182 96.7346C53.6085 84.8139 55.7083 71.2345 65.3673 62.3361C74.9519 53.5081 90.2274 50.9141 101.916 56.9083C113.289 62.7365 119.917 75.5342 118.408 88.2471C116.555 103.843 103.253 114.413 88.2991 115.734L88.3053 115.728ZM86.5865 100.168C91.3942 100.102 96.4845 100.506 101.261 99.9679C105.567 99.4863 105.862 96.3139 104.46 92.9059C101.675 86.1464 94.4603 81.4291 87.1865 81.5599C80.0319 81.689 73.1656 86.3901 70.4062 93.0295C68.9716 96.4699 68.0833 100.376 72.8663 100.349C77.4423 100.324 82.0172 100.224 86.5864 100.162L86.5865 100.168ZM78.3626 71.1464C79.0686 75.9587 82.0404 80.2921 87.3997 80.1622C91.6921 80.0594 95.5121 76.6181 95.9366 72.3015C97.0714 60.6919 78.4395 59.7531 78.3626 71.1464ZM72.2457 105.937C74.6646 107.923 78.4681 108.793 81.4749 109.251C83.7333 109.598 89.1802 110.37 91.0459 108.628C91.0056 108.433 90.9587 108.219 90.9047 107.942C87.5908 107.987 84.5549 108.622 81.2136 108.036C79.5397 107.743 77.883 107.318 76.2989 106.702C75.4659 106.379 73.1383 104.643 72.3002 105.324C72.2837 105.501 72.2617 105.722 72.2395 105.937L72.2457 105.937Z" fill="#1B5FFF"/>
<path d="M92.6898 97.0742C92.3369 98.3539 79.8582 98.4232 79.5607 97.3227C79.1772 95.9015 85.2226 96.3745 86.1013 96.3625C87.2561 96.3468 92.4609 95.4742 92.6836 97.0743L92.6898 97.0742Z" fill="#1B5FFF"/>
<path d="M95.1358 96.902C95.8383 95.9394 96.498 95.9746 97.0138 96.9711C96.7766 97.9968 95.356 97.8584 95.1358 96.902Z" fill="#1B5FFF"/>
<path d="M168.029 142.843C158.771 132.968 144.958 127.506 134.077 119.59C133.958 119.5 140.665 106.541 141.205 105.249C143.32 100.166 144.493 94.7864 145.011 89.3121C145.506 84.0954 147.212 78.9222 146.661 73.6354C146.145 68.6735 143.851 63.7693 141.565 59.4034C135.464 47.1027 129.129 39.2265 116.925 32.6515C112.826 30.2764 107.83 29.258 103.27 28.0221C99.1982 26.9202 94.088 25.1667 89.8016 25.5747C85.2362 26.0147 80.7218 26.4453 75.9731 26.8983C67.5516 29.0211 59.8354 33.5696 52.9663 38.8075C49.8169 41.2083 46.1475 43.764 43.412 46.5595C40.7237 49.3076 38.9908 53.1002 37.4856 56.5918C35.5178 61.1656 32.6442 65.2675 31.2378 70.1003C24.0497 94.8044 32.3299 120.186 53.8538 134.306C75.0041 148.18 96.8856 144.039 118.365 133.798C125.653 145.653 128.217 159.279 138.307 169.697C146.591 178.254 162.265 184.676 171.952 174.662C181.146 165.153 175.955 151.3 168.029 142.849L168.029 142.843ZM85.2582 138.906C55.0452 139.238 31.2839 113.652 33.5426 83.563C35.6924 54.9092 61.3141 29.254 90.6988 30.2966C117.403 31.2478 145.878 56.1635 140.997 85.1021C141.365 115.051 113.771 138.594 85.2582 138.906ZM131.317 123.314C133.548 124.944 136.366 127.011 139.035 128.961C134.643 132.816 130.537 136.43 126.346 140.115C121.053 130.961 123.979 129.077 131.324 123.314L131.317 123.314ZM168.786 171.597C153.565 187.103 132.176 157.565 128.572 144.723C133.6 140.665 138.629 136.606 143.803 132.438C146.834 132.641 152.181 136.675 154.83 138.257C158.998 140.738 162.68 143.622 165.807 147.362C171.264 153.882 175.815 164.435 168.779 171.597L168.786 171.597Z" fill="#1B5FFF"/>
<path d="M156.207 32.3597C152.574 34.1905 139.603 42.4153 135.863 39.0966C135.944 34.0357 154.8 25.295 156.207 32.3597Z" fill="#1B5FFF"/>
<path d="M121.299 5.82939C123.239 10.9438 122.329 17.6632 121.12 22.9205C116.271 26.934 117.313 16.7573 117.42 14.8796C117.65 10.8975 116.551 6.6429 121.299 5.82939Z" fill="#1B5FFF"/>
<path d="M126.399 29.9415C127.287 28.1478 137.33 14.3311 139.032 20.7452C139.871 23.9008 128.946 36.2414 126.399 29.9415Z" fill="#1B5FFF"/>
<path d="M140.317 16.8845C138.939 15.021 139.149 9.07686 142.907 10.8218C145.78 12.1595 142.842 16.9465 140.317 16.8845Z" fill="#1B5FFF"/>
<path d="M82.6834 128.341C58.9241 125.969 42.0506 106.019 44.3515 82.1443C46.6013 58.8419 69.2819 37.7331 93.3537 40.9807C117.843 44.2817 134.75 67.4911 129.879 91.8764C125.151 115.556 105.092 127.316 82.683 128.348L82.6834 128.341ZM81.8625 123.796C104.459 124.458 123.298 109.233 126.199 86.5313C128.859 65.7422 110.591 45.9455 90.0168 45.4247C69.593 44.9077 51.5144 61.6574 49.0217 81.6419C46.3907 102.749 60.787 121.084 81.8629 123.789L81.8625 123.796Z" fill="#1B5FFF"/>
</g>
<defs>
<clipPath id="clip0_51_7514">
<rect width="153" height="171" fill="white" transform="translate(34.4521) rotate(3.8401)"/>
</clipPath>
</defs>
</svg>
