<svg width="184" height="159" viewBox="0 0 184 159" fill="none" xmlns="http://www.w3.org/2000/svg">
<ellipse cx="91.8321" cy="79.4923" rx="49.1091" ry="77.9797" transform="rotate(62.5923 91.8321 79.4923)" fill="#DDE7FF"/>
<g clip-path="url(#clip0_51_7515)">
<path d="M102.795 119.842C107.001 128.767 116.492 140.831 104.369 147.618C92.5422 154.241 88.6659 135.269 84.7749 127.751C80.9974 128.8 77.4725 131.435 73.6036 129.081C61.2682 133.383 55.3787 119.093 53.9182 108.962C33.6034 95.8993 23.1238 71.1965 28.3178 47.5681C33.2629 25.0838 51.744 7.73073 74.2478 3.54963C96.1769 -0.525481 118.743 8.84179 131.873 26.754C135.364 31.5199 137.927 36.7024 140.108 42.17C142.345 47.7728 147.466 50.6966 151.291 55.3346C158.977 64.6544 165.317 76.7993 167.484 88.7395C168.556 94.6457 168.172 101.955 164.219 106.849C159.786 112.339 151.642 111.564 145.302 112.057C130.862 113.187 115.8 113.172 102.791 119.846L102.795 119.842ZM121.869 55.5502C113.626 62.7941 105.906 70.619 98.6513 78.846C92.4433 85.8851 87.8276 91.7401 91.5795 101.403C95.69 111.995 103.19 112.613 113.271 111.695C124.387 110.687 135.5 109.682 146.598 108.501C139.479 101.111 133.417 93.6991 128.897 84.4122C124.753 75.9002 120.273 65.1916 121.869 55.5502ZM138.209 93.6845C142.828 100.614 156.064 116.041 162.832 102.602C168.205 91.9302 161.309 77.607 155.954 68.1812C152.158 61.5003 141.364 43.6721 131.686 46.8152C119.991 50.6126 126.031 70.301 129.676 77.395C135.646 74.2226 145.456 68.3055 149.38 77.4937C152.887 85.6951 144.314 90.863 138.209 93.6881V93.6845ZM54.233 62.0887H30.3456C30.8874 73.5794 34.6173 83.6886 41.2388 92.5661C46.6451 90.2088 51.8794 87.9245 57.2272 85.5927C55.3604 77.9469 54.0793 70.217 54.233 62.0887ZM40.6568 28.6143C35.2725 34.2902 29.0975 52.7543 30.7812 58.3535H54.1964C54.1452 50.3092 55.2982 42.5099 57.0918 35.0468C51.4951 32.8575 46.1071 30.745 40.6568 28.6106V28.6143ZM86.8101 58.3242H113.348C112.788 50.3458 111.971 42.5866 109.574 35.1016C101.979 36.4575 94.4821 37.5211 86.8064 38.3215V58.3242H86.8101ZM83.0838 58.3608C83.5853 53.9458 83.3803 40.01 82.8093 38.347C75.3861 37.8829 67.93 37.4991 60.5105 35.5036C58.4863 43.091 57.6115 50.6382 57.4615 58.3571H83.0838V58.3608ZM60.624 85.0153C68.1643 83.1513 75.5216 82.0914 83.1021 81.9891V62.1106H57.3992C57.6518 69.8953 58.49 77.406 60.624 85.0153ZM83.1424 34.5607V6.18474C71.0084 7.92078 64.6284 21.6848 61.5244 32.101C66.4256 33.826 78.8378 35.2332 83.1424 34.5607ZM108.6 31.6807C105.093 21.1292 98.8196 8.41418 86.832 6.08241V34.8238C94.1857 34.4218 101.312 33.6141 108.6 31.677V31.6807ZM116.938 55.6708C123.201 49.6404 127.744 42.6999 137.052 43.4711C134.845 37.6234 132.067 32.3093 128.41 27.792C123.227 29.9812 118.311 32.0571 113.34 34.155C114.497 41.0735 115.683 48.1602 116.938 55.6672V55.6708ZM87.996 126.494C90.2471 131.387 92.4214 136.336 94.8555 141.139C96.9565 145.283 98.3475 147.18 102.769 144.545C111.748 139.198 103.681 128.069 99.6249 121.41C95.734 123.109 91.9529 124.761 87.9924 126.49L87.996 126.494ZM86.8174 81.8904C92.3152 82.3838 95.7267 77.2707 99.0283 73.7365C102.59 69.9209 106.554 66.2369 109.72 62.0923H86.8174V81.8941V81.8904ZM58.1679 31.2348C60.9827 22.3755 64.8261 14.2472 72.0186 7.65763C62.6079 8.71753 45.2689 19.7404 43.2593 25.6539C46.9709 28.0113 53.3838 30.4344 58.1679 31.2348ZM126.071 24.8352C118.388 16.272 109.299 10.5998 98.3475 7.85865C105.13 14.1376 108.842 22.2293 111.993 30.7889C116.946 29.2356 121.539 27.5325 126.067 24.8316L126.071 24.8352ZM43.5522 95.5302C46.9965 99.3458 50.3933 102.683 54.2001 105.047C57.6408 102.233 59.3392 100.566 60.9168 96.3854C60.053 94.1048 59.1708 91.7694 58.2265 89.2768C53.0361 90.6364 48.3472 92.7489 43.5558 95.5302H43.5522ZM80.8876 85.8303C74.3393 85.5379 68.0545 86.6965 61.6855 88.2352C62.1064 90.5267 62.8641 92.5113 63.9659 94.4228C69.7126 91.5026 75.302 88.6664 80.8876 85.8303ZM58.9073 105.153C54.6906 110.299 62.0515 129.253 69.8371 126.771C63.8561 120.77 60.43 113.676 58.9073 105.153ZM71.4659 98.4248C69.5955 95.3767 67.348 101.334 67.0918 102.69C66.5574 105.526 67.4761 108.523 68.4754 111.162C69.7931 114.641 74.2148 124.681 79.7566 122.049C80.3056 120.204 76.9271 120.204 75.8803 119.476C73.9293 118.121 72.9557 116.07 71.9198 114.009C69.4234 109.046 66.982 103.063 71.4696 98.4284L71.4659 98.4248ZM136.485 87.5554C138.886 88.3704 141.203 87.5079 142.736 85.3296C143.765 83.8713 144.497 76.7518 140.899 78.9337C142.586 84.0139 140.493 84.5731 136.481 87.5554H136.485Z" fill="#1B5FFF" stroke="#1B5FFF"/>
<path d="M51.2426 6.56485C48.4901 10.7642 42.143 13.3993 38.6437 17.3538C37.4651 18.6878 34.3941 24.4771 32.2967 21.6884C30.7337 19.6089 38.2484 12.8511 39.6796 11.539C40.9241 10.3951 51.0779 1.48101 51.2463 6.56851L51.2426 6.56485Z" fill="#1B5FFF" stroke="#1B5FFF"/>
<path d="M115.976 131.508C113.04 136.274 107.008 124.001 107.41 121.552C108.483 114.992 115.071 129.728 115.976 131.508Z" fill="#1B5FFF" stroke="#1B5FFF"/>
<path d="M118.911 136.658C118.783 140.17 114.661 138.174 114.947 135.729C115.346 132.33 117.945 135.346 118.911 136.658Z" fill="#1B5FFF" stroke="#1B5FFF"/>
<path d="M56.374 3.53137C56.4143 5.64019 52.9955 5.93258 52.8894 3.75066C52.7869 1.68935 56.3301 1.23981 56.374 3.53137Z" fill="#1B5FFF" stroke="#1B5FFF"/>
<path d="M125.419 103.344C127.502 107.262 122.48 106.721 119.848 106.973C117.513 107.196 109.662 109.17 107.861 107.701C104.621 105.055 110.288 104.466 111.887 104.261C116.309 103.695 120.972 103.344 125.419 103.344Z" fill="#1B5FFF" stroke="#1B5FFF"/>
<path d="M129.413 102.387C131.609 102.387 131.861 105.541 129.629 105.68C127.509 105.811 127.022 102.387 129.413 102.387Z" fill="#1B5FFF" stroke="#1B5FFF"/>
<path d="M142.286 61.1165C139.651 58.295 136.206 54.4611 132.843 58.6714C132.173 59.5084 132.762 61.9571 131.638 62.5492C129.632 63.6018 129.252 61.2883 129.094 59.925C128.644 55.9669 133.139 53.2039 136.55 53.3756C139.709 53.5328 147.272 58.3206 142.286 61.1165Z" fill="#1B5FFF" stroke="#1B5FFF"/>
<path d="M147.714 64.0001C146.32 65.8056 143.256 64.6982 143.739 62.1289C144.358 58.8396 147.802 61.8146 147.714 64.0001Z" fill="#1B5FFF" stroke="#1B5FFF"/>
</g>
<defs>
<clipPath id="clip0_51_7515">
<rect width="141" height="147" fill="white" transform="translate(27 2)"/>
</clipPath>
</defs>
</svg>
