<svg width="587" height="542" viewBox="0 0 587 542" fill="none" xmlns="http://www.w3.org/2000/svg">
<ellipse cx="415.397" cy="349.769" rx="92.185" ry="146.379" transform="rotate(50.5417 415.397 349.769)" fill="#D1DFFF"/>
<ellipse cx="87.4469" cy="422.266" rx="62.6027" ry="61.0531" transform="rotate(50.5417 87.4469 422.266)" fill="#1B5FFF"/>
<path d="M241.504 7.89485C242.084 5.99578 244.779 6.01233 245.336 7.91839L256.964 47.6879C257.34 48.9738 258.849 49.5337 259.973 48.8041L294.724 26.2382C296.389 25.1567 298.442 26.9012 297.644 28.7196L280.988 66.6592C280.45 67.8859 281.246 69.2849 282.576 69.4482L323.701 74.4991C325.672 74.7412 326.124 77.3974 324.344 78.2772L287.197 96.6344C285.996 97.228 285.707 98.8115 286.621 99.7914L314.878 130.096C316.233 131.548 314.871 133.873 312.942 133.403L272.686 123.588C271.385 123.271 270.145 124.298 270.215 125.636L272.382 167.014C272.486 168.997 269.949 169.903 268.773 168.302L244.245 134.908C243.451 133.828 241.842 133.818 241.035 134.888L216.098 167.979C214.903 169.565 212.377 168.628 212.505 166.646L215.181 125.298C215.267 123.961 214.04 122.919 212.735 123.22L172.362 132.539C170.427 132.986 169.094 130.644 170.466 129.209L199.094 99.2539C200.019 98.2853 199.75 96.6983 198.556 96.0901L161.638 77.278C159.869 76.3763 160.353 73.7259 162.327 73.508L203.511 68.9626C204.843 68.8157 205.656 67.4265 205.133 66.1933L188.944 28.052C188.168 26.224 190.243 24.5048 191.895 25.6067L226.366 48.5977C227.48 49.341 228.996 48.7998 229.388 47.5186L241.504 7.89485Z" fill="#FE7A1B"/>
<g clip-path="url(#clip0_51_7519)">
<path d="M331.317 275.157C321.564 280.948 319.651 277.914 312.772 269.819C309.907 266.448 302.975 260.594 303.331 255.657C303.678 250.952 312.63 245.73 315.575 243.23C325.141 235.091 333.15 225.804 346.374 225.768C352.985 225.751 354.071 225.688 357.301 230.358C359.909 234.139 359.464 238.96 365.702 239.094C387.708 239.548 366.529 190.462 375.908 180.855C383.125 173.462 404.268 175.108 413.995 173.907C426.818 172.315 439.979 171.39 452.659 168.872C443.592 161.213 434.746 154.141 430.84 141.927C422.813 168.863 394.142 177.536 372.553 159.114C372.553 164.958 374.369 174.814 369.964 179.556C368.211 181.442 364.189 181.13 363.094 183.176C361.751 185.712 364.776 192.383 365.346 195.043C366.841 202.026 370.356 210.779 362.035 213.946C354.881 216.659 337.404 215.138 329.929 214.053C320.585 212.692 321.288 209.303 324.465 202.382C327.58 195.595 326.325 195.096 318.939 191.672C303.215 184.386 285 183.692 268.697 189.59C261.418 192.223 254.62 196.137 248.711 201.136C243.612 205.451 237.303 215.681 229.392 210.415C220.796 204.695 228.742 196.787 233.467 192.027C235.879 189.599 242.597 185.24 243.63 182.287C244.778 178.986 243.176 179.218 242.624 175.686C239.278 154.203 242.455 129.803 242.553 108.053C242.589 100.483 240.008 87.1485 243.879 80.21C247.572 73.6095 256.257 74.9349 262.762 74.926C288.488 74.8815 314.214 74.8904 339.931 74.8904C347.441 74.8904 364.064 71.8214 369.946 78.0483C376.024 84.4887 372.5 102.467 372.5 110.393C397.737 95.3147 412.678 97.5297 427.645 118.523C428.206 112.367 427.093 98.9796 430.706 93.6245C434.266 88.3672 441.643 88.047 447.302 86.3657C454.581 84.2041 464.263 78.1907 472.103 79.1336C478.982 79.9698 485.78 86.935 491.76 90.0574C496.441 92.5037 505.811 94.5674 508.774 99.5578C512.093 105.162 508.445 115.107 507.617 120.863C505.019 138.965 499.609 153.83 484.516 165.243C495.213 164.14 508.258 160.057 512.805 172.706C518.207 187.713 517.459 207.746 519.319 223.544C520.316 232.013 521.339 240.482 522.354 248.95C523.048 254.741 525.522 263.521 522.567 269.045C516.454 280.458 489.437 278.19 478.492 279.435C479.409 281.855 480.272 287.388 482.381 289.229C484.917 291.435 486.688 289.55 489.259 290.786C494.474 293.304 496.058 296.897 489.891 300.109C483.689 303.338 469.745 302.164 462.697 302.848C454.101 303.685 443.592 303.231 435.52 306.202C449.838 313.772 464.192 321.289 478.474 328.93C486.439 333.182 510.821 340.93 500.383 352.512C496.717 356.587 488.049 357.005 485.086 361.159C481.98 365.509 489.126 370.909 492.169 374.894C495.115 378.754 500.641 383.985 499.253 389.376C497.553 395.985 485.629 401.634 480.663 405.29C483.369 412.469 488.672 412.593 494.892 415.128C501.068 417.646 505.357 422.094 507.644 428.383C513.927 445.649 499.297 453.584 487.355 462.239C458.043 483.482 428.571 498.676 392.869 505.97C356.127 513.478 319.571 511.485 282.481 508.648C267.46 507.5 248.497 503.773 235.452 513.647C226.9 520.123 227.06 535.245 217.984 539.311C212.102 541.944 202.002 539.996 195.782 540.031C186.127 540.085 176.463 540.147 166.808 540.2C147.693 540.316 127.885 542.006 108.851 540.556C92.3969 539.302 95.3335 526.759 95.1644 513.024C94.9419 495.304 94.3101 477.193 97.923 459.74C104.561 427.653 127.556 404.409 157.589 392.587C194.304 378.132 226.233 387.712 262.575 397.773C282.383 403.253 300.483 407.016 320.932 407.816C330.107 408.172 337.048 410.031 344.692 415.128C353.288 420.866 359.615 415.191 368.647 411.081C383.107 404.507 402.293 390.319 418.809 394.331C428.152 396.599 430.475 403.057 440.237 400.451C450.07 397.827 459.28 395.985 469.513 397.738C466.942 394.295 464.432 389.5 461.175 386.627C455.952 382.019 459.209 382.588 454.697 384.866C448.753 387.863 449.758 399.704 440.415 398.458C428.793 396.91 425.83 365.278 423.311 356.026C420.811 346.837 418.302 337.648 415.828 328.441C414.217 322.454 407.169 306.54 411.45 301.025C415.338 296.017 422.342 300.118 427.227 298.285C431.071 296.844 435.93 293.446 434.684 288.375C433.563 283.794 430.76 285.111 426.212 285.431C421.763 285.742 406.333 285.52 403.049 288.304C399.472 291.346 402.213 307.946 401.972 312.198C401.519 320.364 400.798 322.597 392.549 323.922C383.419 325.39 372.705 323.967 363.432 323.949C355.94 323.94 342.912 326.706 336.167 323.557C329.484 320.435 331.299 313.132 331.29 306.682C331.29 296.186 331.29 285.68 331.29 275.183L331.317 275.157ZM498.585 430.954C489.535 411.49 455.961 432.582 443.449 438.364C422.155 448.22 399.338 454.865 375.917 456.902C366.591 457.712 354.676 455.043 345.92 457.703C335.829 460.763 329.813 466.189 318.352 466.509C306.792 466.83 294.877 464.65 283.451 463.138C275.914 462.142 257.049 463.076 251.63 457.961C243.799 450.551 258.517 449.714 262.78 449.955C272.39 450.488 281.912 452.668 291.407 454.144C306.561 456.502 337.253 462.524 343.695 442.981C350.805 421.382 327.66 417.254 311.998 416.863C290.864 416.338 271.34 410.609 251.211 404.391C211.772 392.213 172.787 388.442 137.575 414.177C106.181 437.109 103.244 473.626 104.108 509.742C104.205 513.985 102.372 525.3 104.624 528.992C106.92 532.755 111.574 531.5 115.4 531.492C126.096 531.456 136.783 531.394 147.48 531.34C159.822 531.269 172.156 531.189 184.498 531.118C191.644 531.073 208.008 534.178 213.881 530.602C218.429 527.835 220.297 516.912 223.759 512.339C227.345 507.589 231.928 503.853 237.392 501.451C253.765 494.246 275.941 498.151 293.106 499.681C337.119 503.604 380.215 502.616 422.404 488.037C431.988 484.727 441.358 480.778 450.319 476.036C454.377 473.884 460.152 471.455 463.525 468.235C467.796 464.161 465.687 464.801 465.055 459.411C463.071 442.456 484.258 431.888 498.567 430.98L498.585 430.954ZM428.624 251.832C456.139 248.683 482.025 245.605 507.938 242.892C511.844 242.483 511.942 241.042 511.551 237.982C509.299 220.369 507.164 202.738 505.046 185.098C503.506 172.253 503.569 172.439 490.95 174.005C455.845 178.382 420.713 182.625 385.581 186.77C382.484 187.135 381.862 188.434 382.155 191.049C383.348 201.635 384.424 212.238 385.821 222.806C385.955 223.838 387.833 224.923 389.114 225.475C392.816 227.049 397.203 227.592 400.282 229.914C408.549 236.149 416.228 243.168 424.273 249.715C425.83 250.987 427.974 251.539 428.615 251.841L428.624 251.832ZM366.583 315.338C366.583 315.338 366.583 315.356 366.583 315.373C371.895 315.373 389.434 318.407 393.198 313.808C396.446 309.84 393.501 294.042 393.537 288.455C393.563 283.509 391.134 269.099 395.014 265.79C400.469 261.137 404.518 270.113 409.919 269.437C411.592 269.232 418.729 261.609 418.933 259.856C419.378 256.004 418.373 256.672 415.071 253.38C409.296 247.616 400.317 238.275 392.771 234.904C380.553 229.451 378.48 248.336 365.23 247.634C351.215 246.895 350.912 227.583 335.766 237.35C331.139 240.339 318.895 249.6 316.358 254.021C313.965 258.184 316.83 266.492 323.148 267.471C328.122 268.245 333.337 259.634 337.991 261.973C343.482 264.731 340.34 282.14 340.331 287.077C340.323 292.094 337.6 311.032 341.017 314.431C344.425 317.82 362.08 315.347 366.583 315.347V315.338ZM307.691 109.334V109.583C290.499 109.583 273.307 109.672 256.115 109.512C252.502 109.476 251.318 110.419 251.363 114.182C251.558 131.368 251.434 148.555 251.434 165.75C251.434 173.462 252.804 174.53 260.466 172.706C261.329 172.502 262.148 172.137 262.993 171.879C277.356 167.396 292.03 165.296 306.783 168.934C318.93 171.932 331.023 174.21 343.544 173.275C345.252 173.151 347.353 172.528 348.483 171.363C353.635 166.043 354.943 166.035 359.748 171.852C360.362 172.591 361.688 172.84 362.738 173.035C362.934 173.071 363.673 171.826 363.673 171.167C363.673 151.757 363.504 132.356 363.619 112.946C363.637 109.37 361.929 109.299 359.277 109.307C342.085 109.37 324.892 109.343 307.7 109.343L307.691 109.334ZM436.873 118.497C435.921 127.641 437.558 136.777 442.355 144.685C445.905 150.538 454.67 161.489 461.745 163.09C476.837 166.497 492.988 144.062 495.951 132.098C497.268 126.778 502.563 108.649 499.021 104.317C497.259 102.164 491.982 101.595 489.313 100.483C484.116 98.3125 479.72 95.5193 474.95 92.6193C466.239 87.3353 455.925 93.58 446.377 96.6223C435.378 100.127 437.799 107.831 436.864 118.505L436.873 118.497ZM441.661 389.1C444.864 383.941 447.685 377.598 451.68 373.017C457.18 366.719 459.351 370.321 463.934 376.041C468.588 381.85 474.292 395.443 482.772 392.898C497.42 388.504 479.248 372.937 474.853 366.434C466.701 354.398 483.03 352.032 492.668 347.38C468.276 334.401 444.677 321.841 419.752 308.577C427.182 335.887 434.257 361.88 441.661 389.1ZM307.433 100.75C321.956 100.75 336.478 100.75 351.001 100.75C363.45 100.75 363.29 100.732 363.45 88.2694C363.504 84.4087 362.204 83.697 358.654 83.7148C327.081 83.8749 295.509 83.8572 263.936 83.8749C251.416 83.8749 251.549 83.8572 251.523 96.6134C251.523 100.047 252.644 100.83 255.848 100.812C273.04 100.688 290.232 100.75 307.424 100.759L307.433 100.75ZM397.879 110.135C365.666 109.992 365.141 160.155 396.847 160.822C428.357 161.48 429.914 110.277 397.879 110.135ZM363.548 448.007C383.935 447.811 404.135 443.888 423.196 436.691C432.949 433.009 442.31 428.338 451.841 424.14C456.664 422.014 475.102 417.201 473.455 411.499C466.781 388.371 375.161 442.269 363.548 448.015V448.007ZM414.947 277.549C435.885 276.171 456.797 273.057 477.647 270.691C487.444 269.579 500.098 270.175 509.353 267.062C514.745 265.247 514.772 264.989 514.327 258.815C513.615 248.906 508.356 251.485 500 252.464C488.877 253.754 477.745 255.017 466.612 256.289C456.708 257.419 442.559 256.698 433.225 260.114C425.225 263.041 420.464 271.171 414.947 277.558V277.549ZM425.029 407.603C409.697 397.666 394.773 408.635 380.82 415.902C374.102 419.398 354.729 424.166 353.35 432.768C351.081 446.93 375.926 430.313 380.811 428.054C395.548 421.231 410.284 414.417 425.029 407.603ZM442.978 295.607C448.628 294.994 469.487 295.661 472.165 290.893C474.452 286.828 468.971 281.882 465.856 281.045C462.074 280.04 451.235 281.286 447.783 283.412C443.645 285.965 443.636 291.186 442.978 295.599V295.607ZM472.948 456.911C479.373 460.549 494.794 447.366 497.767 441.077C488.601 440.561 477.451 449.394 472.948 456.911ZM402.586 276.322C402.106 278.226 402.631 279.578 404.5 278.048C403.984 277.585 403.476 277.122 402.586 276.322ZM341.586 182.892C340.901 182.189 340.127 182.091 339.281 182.598C339.922 183.932 340.687 184.03 341.586 182.892Z" fill="black"/>
<path d="M194.527 274.899C188.68 279.595 187.105 278.261 180.876 280.058C173.668 282.14 167.804 288.135 159.849 289.834C143.813 293.259 127.484 287.984 115.809 276.607C93.171 254.554 96.2945 217.157 121.638 198.566C146.341 180.454 180.965 189.394 195.728 215.61C199.51 222.326 198.531 226.017 206.291 226.391C209.646 226.551 213.953 225.226 217.227 226.409C221.935 228.117 220.315 229.3 222.922 233.161C225.966 237.671 230.798 241.344 236.422 237.564C242.473 233.499 238.442 227.539 246.602 226.071C256.123 224.354 264.043 228.882 270.86 234.851C276.119 239.45 290.997 247.127 292.902 253.834C294.557 259.66 284.199 271.243 280.114 275.263C275.149 280.156 272.613 278.706 266.366 275.726C266.366 284.915 266.366 294.104 266.366 303.293C266.366 307.367 267.567 313.995 265.921 317.909C262.308 326.52 246.21 323.041 238.896 323.095C230.433 323.148 199.296 328.023 194.865 320.399C192.017 315.498 194.331 304.058 194.367 298.481C194.42 290.626 194.509 282.771 194.509 274.916L194.527 274.899ZM168.899 276.909C175.573 272.443 179.159 271.305 173.179 264.802C171.737 268.939 170.358 272.888 168.988 276.838L168.765 276.749L168.899 276.909ZM130.519 239.592C130.768 246.104 129.415 248.941 135.244 251.094C143.208 254.038 146.1 250.783 146.519 243.826C147.07 234.753 149.072 227.227 137.246 228.944C130.243 229.958 130.528 232.805 130.519 239.592ZM161.958 229.424C158.71 231.8 158.318 227.797 155.319 231.88C153.913 233.801 153.949 244.173 154.581 246.548C155.809 251.156 161.753 254.537 166.816 251.192C170.189 248.968 171.07 238.596 170.198 235.144C168.81 229.647 168.463 229.522 161.967 229.433L161.958 229.424ZM123.177 239.859H123.115C123.115 235.553 124.236 231.195 120.232 228.971C113.113 225.021 110.141 232.493 110.061 237.599C109.972 243.488 109.126 253.576 118.372 251.388C124.343 249.973 123.177 245.508 123.177 239.859ZM147.417 197.205C142.265 201.119 138.652 206.501 136.018 212.336C133.5 217.905 132.245 218.803 136.223 221.098C142.194 224.541 146.234 220.849 147.382 216.455C148.841 210.859 147.417 202.942 147.417 197.214V197.205ZM177.085 248.603C181.455 244.823 198.122 235.295 191.003 230.02C188.431 228.117 179.55 229.407 177.61 231.622C175.137 234.45 177.085 244.734 177.085 248.603ZM157.161 197.898C156.627 198.014 156.102 198.139 155.568 198.254C155.568 202.658 153.442 216.286 156.245 219.71C157.402 221.125 166.852 223.046 168.267 221.08C171.595 216.455 159.982 200.736 157.161 197.898ZM153.869 281.09L155.31 281.917C157.722 278.101 169.655 263.904 165.66 259.242C164.396 257.766 156.28 259.358 155.337 260.212C151.822 263.397 153.878 276.553 153.878 281.09H153.869ZM145.958 281.899C145.958 278.092 148.085 263.272 145.887 260.523C144.321 258.557 136.427 257.188 134.568 258.887C129.317 263.663 142.407 278.822 145.958 281.899ZM173.517 204.455C173.081 204.828 172.645 205.202 172.209 205.584C173.063 208.973 173.74 218.154 176.204 220.742C178.678 223.322 184.854 222.094 188.44 222.094C188.707 221.659 188.974 221.214 189.241 220.778C184 215.343 178.758 209.899 173.517 204.463V204.455ZM130.599 204.517C124.227 206.901 116.103 213.946 114.813 220.831C118.203 220.369 122.421 221.427 125.277 219.088C128.712 216.286 129.291 208.44 130.599 204.508V204.517ZM128.908 275.948C129.255 275.592 129.602 275.237 129.949 274.881C126.772 265.247 126.79 257.036 114.768 259.127C117.224 265.674 124.156 270.94 128.908 275.948Z" fill="black"/>
<path d="M209.085 189.795C197.125 187.597 184.151 185.285 171.213 182.829C153.326 179.44 135.458 175.909 117.58 172.502C109.865 171.034 107.534 167.867 108.788 160.119C112.65 136.314 116.521 112.501 120.437 88.7053C121.451 82.5495 123.792 80.7704 129.958 81.8468C161.602 87.3709 193.228 92.9663 224.854 98.6238C231.145 99.7447 233.352 103.214 232.177 109.387C227.559 133.512 222.941 157.646 218.304 181.762C217.174 187.651 214.718 190.017 209.103 189.804L209.085 189.795ZM172.165 168.009C174.256 167.146 176.338 166.293 178.429 165.43C175.143 164.588 173.081 165.48 172.245 168.107L171.782 168.338C172.04 168.427 172.174 168.321 172.165 168.009ZM177.709 116.371L177.522 116.29L177.798 116.388C178.109 120.382 177.379 141.403 188.173 135.078C194.483 131.377 181.873 119.11 177.717 116.362L177.709 116.371ZM150.781 113.764C147.444 116.175 130.911 125.106 135.823 130.603C137.834 132.845 144.036 132.071 146.012 130.168C148.859 127.419 149.66 117.527 150.719 113.693C150.817 113.631 150.915 113.568 151.013 113.515C150.941 113.604 150.861 113.684 150.79 113.773L150.781 113.764ZM180.654 175.206C189.829 176.976 198.362 178.737 206.959 180.134C207.902 180.285 209.966 178.551 210.189 177.43C214.54 155.369 218.651 133.263 222.932 111.193C223.448 108.534 223.288 107.253 220.164 106.71C191.146 101.711 162.145 96.6312 133.171 91.3562C129.478 90.6801 128.721 91.8899 128.205 95.1101C124.699 116.869 120.98 138.592 117.518 160.35C117.349 161.436 118.684 163.633 119.663 163.873C124.735 165.109 129.914 165.874 135.369 166.862C115.543 142.648 124.957 118.986 138.893 109.361C156.432 97.245 179.72 100.883 192.738 118.025C206.273 135.852 201.717 158.135 180.645 175.206H180.654ZM170.723 127.873C169.833 123.104 170.047 110.686 163.15 112.127C159.707 112.848 155.613 123.603 155.48 126.6C155.124 134.936 171.987 135.967 170.723 127.873ZM154.154 145.948C155.062 157.468 153.469 156.071 165.731 155.849C171.586 155.742 170.332 147.87 169.691 144.445C168.49 138.076 161.798 141.581 157.589 140.611C152.57 139.446 154.759 143.938 154.154 145.957V145.948ZM139.266 139.766C127.244 139.677 135.885 155.28 141.829 154.426C148.014 153.545 147.862 138.263 139.266 139.766ZM179.898 156.258C186.723 156.258 196.485 146.162 186.928 142.862C176.276 139.179 180.263 150.779 176.997 154.568C178.358 155.369 179.72 156.16 179.889 156.258H179.898ZM158.256 163.295C157.971 163.731 157.687 164.175 157.402 164.611C158.817 166.15 160.232 167.689 161.655 169.237C162.705 167.84 163.756 166.444 164.806 165.047C162.625 164.46 160.445 163.882 158.265 163.295H158.256ZM149.829 166.871C150.114 166.488 150.39 166.106 150.674 165.732C148.904 164.38 147.124 163.028 145.353 161.676C145.006 162.156 144.65 162.628 144.303 163.108C146.145 164.362 147.987 165.616 149.838 166.871H149.829Z" fill="black"/>
<path d="M258.829 350.716C285.098 375.089 328.612 372.181 352.896 346.561C358.013 341.162 364.705 327.507 373.924 334.312C381.301 339.756 375.294 348.118 371.094 353.491C360.149 367.502 344.986 377.9 327.936 382.944C310.939 387.97 292.608 387.508 275.852 381.717C267.104 378.692 259.781 373.906 251.79 369.45C245.641 366.025 245.846 365.625 241.156 370.695C238.762 373.284 234.669 379.333 230.122 377.598C223.661 375.134 221.454 353.269 220.164 347.229C218.429 339.089 218.019 335.424 226.847 333.547C232.791 332.284 240.319 333.28 246.406 333.218C250.98 333.173 259.256 331.555 263.465 333.574C272.328 337.844 262.913 345.876 258.82 350.698L258.829 350.716Z" fill="black"/>
<path d="M144.045 297.324C157.108 296.933 158.71 309.413 161.041 319.59C164.53 334.837 167.769 350.182 170.803 365.527C172.903 376.13 173.268 383.736 161.905 387.766C149.927 392.018 133.473 396.937 120.793 397.551C109.394 398.102 106.662 390.123 104.179 380.454C100.068 364.486 96.446 348.385 92.7442 332.32C89.3894 317.749 89.5763 310.828 105.131 306.229C117.847 302.475 130.955 299.379 144.036 297.324H144.045ZM146.012 304.975C134.372 307.937 122.706 310.801 111.111 313.906C99.6585 316.975 98.9288 318.887 101.589 330.576C103.983 341.099 106.457 351.614 108.949 362.12C110.221 367.493 111.592 385.239 116.895 388.379C122.19 391.511 139.346 384.376 145.193 382.962C153.326 380.996 162.91 381.743 163.533 372.492C164.227 362.226 158.007 347.575 155.836 337.381C153.46 326.217 152.401 314.502 146.003 304.975H146.012Z" fill="black"/>
<path d="M321.644 453.166C300.697 454.571 289.084 427.867 312.773 422.138C322.561 419.772 334.992 421.186 338.383 432.075C342.699 445.934 333.782 452.392 321.644 453.166ZM329.653 437.403C331.46 427.013 309.364 429.077 308.448 436.602C307.424 444.955 330.561 448.46 329.653 437.403Z" fill="black"/>
<path d="M303.883 120.729C315.522 120.596 332.883 124.261 339.958 134.962C347.887 146.954 321.199 156.187 312.434 157.166C300.59 158.482 282.375 154.497 275.229 143.724C267.291 131.769 294.512 120.729 303.883 120.738V120.729ZM297.894 131.057C295.233 132.374 283.425 136.412 283.692 139.348C284.003 142.781 295.215 147.434 297.814 149.008C293.72 140.958 293.596 136.252 297.947 130.977L297.84 130.755L297.894 131.057ZM316.287 129.029L315.157 130.257C321.164 135.478 319.713 141.492 317.462 147.994C320.123 146.722 331.148 142.452 330.961 139.063C330.766 135.478 319.108 130.701 316.287 129.029Z" fill="black"/>
<path d="M461.451 118.941C466.488 119.573 472.049 118.256 474.096 123.247C475.911 127.686 472.619 148.101 468.899 150.423C457.998 157.219 459.12 142.212 459.965 136.884C460.543 133.245 461.3 130.088 460.383 126.6C459.796 124.35 456.406 125.711 457.18 122.402C457.66 120.338 459.627 119.92 461.46 118.95L461.451 118.941Z" fill="black"/>
<path d="M476.837 108.391C476.81 117.491 461.611 117.376 461.398 108.507C461.175 99.3978 476.873 98.9441 476.837 108.391Z" fill="black"/>
<path d="M391.9 141.776C391.9 137.222 390.422 129.687 396.892 129.447C403.317 129.207 402.694 135.656 402.783 140.273C402.863 144.658 403.939 152.504 398.618 154.497C390.734 157.45 392.069 146.144 392.069 141.776C392.015 141.776 391.962 141.776 391.908 141.776H391.9Z" fill="black"/>
<path d="M397.194 128.104C395.29 125.239 388.215 114.013 397.737 115.783C406.484 117.411 399.463 125.115 397.194 128.104Z" fill="black"/>
<path d="M132.842 327.89C158.692 328.165 156.174 369.174 130.154 366.487C105.808 363.97 108.904 327.64 132.842 327.89ZM142.292 347.513C142.345 333.894 121.665 334.677 121.647 347.513C121.62 360.314 142.248 360.394 142.292 347.513Z" fill="black"/>
</g>
<defs>
<clipPath id="clip0_51_7519">
<rect width="433" height="467" fill="white" transform="translate(91 74.1165)"/>
</clipPath>
</defs>
</svg>
