<svg width="22" height="22" viewBox="0 0 22 22" fill="none" xmlns="http://www.w3.org/2000/svg">
<path d="M12.543 9.24072L13.1737 9.64656V9.64656L12.543 9.24072ZM8.41683 8.25C8.41683 8.66421 8.75262 9 9.16683 9C9.58104 9 9.91683 8.66421 9.91683 8.25H8.41683ZM10.2502 12.375C10.2502 12.7892 10.5859 13.125 11.0002 13.125C11.4144 13.125 11.7502 12.7892 11.7502 12.375H10.2502ZM11.7502 14.6667C11.7502 14.2525 11.4144 13.9167 11.0002 13.9167C10.5859 13.9167 10.2502 14.2525 10.2502 14.6667H11.7502ZM10.2502 15.5833C10.2502 15.9975 10.5859 16.3333 11.0002 16.3333C11.4144 16.3333 11.7502 15.9975 11.7502 15.5833H10.2502ZM20.1668 11H19.4168C19.4168 15.6484 15.6486 19.4167 11.0002 19.4167V20.1667V20.9167C16.477 20.9167 20.9168 16.4768 20.9168 11H20.1668ZM11.0002 20.1667V19.4167C6.35177 19.4167 2.5835 15.6484 2.5835 11H1.8335H1.0835C1.0835 16.4768 5.52334 20.9167 11.0002 20.9167V20.1667ZM1.8335 11H2.5835C2.5835 6.3516 6.35177 2.58333 11.0002 2.58333V1.83333V1.08333C5.52334 1.08333 1.0835 5.52317 1.0835 11H1.8335ZM11.0002 1.83333V2.58333C15.6486 2.58333 19.4168 6.3516 19.4168 11H20.1668H20.9168C20.9168 5.52317 16.477 1.08333 11.0002 1.08333V1.83333ZM12.8335 8.25H12.0835C12.0835 8.46678 12.0206 8.66659 11.9123 8.83488L12.543 9.24072L13.1737 9.64656C13.4331 9.24348 13.5835 8.76316 13.5835 8.25H12.8335ZM9.16683 8.25H9.91683C9.91683 7.65169 10.4019 7.16667 11.0002 7.16667V6.41667V5.66667C9.57343 5.66667 8.41683 6.82326 8.41683 8.25H9.16683ZM11.0002 6.41667V7.16667C11.5985 7.16667 12.0835 7.65169 12.0835 8.25H12.8335H13.5835C13.5835 6.82326 12.4269 5.66667 11.0002 5.66667V6.41667ZM11.0002 11.9167H10.2502V12.375H11.0002H11.7502V11.9167H11.0002ZM12.543 9.24072L11.9123 8.83488C11.7988 9.01123 11.6562 9.19458 11.4865 9.4055C11.3246 9.60666 11.1322 9.83996 10.9597 10.077C10.62 10.5439 10.2502 11.1634 10.2502 11.9167H11.0002H11.7502C11.7502 11.6574 11.8778 11.3646 12.1726 10.9596C12.3173 10.7607 12.4763 10.568 12.6551 10.3458C12.8261 10.1334 13.0132 9.89595 13.1737 9.64656L12.543 9.24072ZM11.0002 14.6667H10.2502V15.5833H11.0002H11.7502V14.6667H11.0002Z" fill="#28303F"/>
</svg>
