<svg width="75" height="75" viewBox="0 0 75 75" fill="none" xmlns="http://www.w3.org/2000/svg">
<path d="M68.75 43.75L59.5656 37.1372C54.7931 33.7011 48.2709 34.0562 43.8997 37.9902L31.1003 49.5098C26.7291 53.4438 20.2069 53.7989 15.4344 50.3628L6.25 43.75M18.75 68.75H56.25C63.1536 68.75 68.75 63.1536 68.75 56.25V18.75C68.75 11.8464 63.1536 6.25 56.25 6.25H18.75C11.8464 6.25 6.25 11.8464 6.25 18.75V56.25C6.25 63.1536 11.8464 68.75 18.75 68.75ZM34.375 26.5625C34.375 30.8772 30.8772 34.375 26.5625 34.375C22.2478 34.375 18.75 30.8772 18.75 26.5625C18.75 22.2478 22.2478 18.75 26.5625 18.75C30.8772 18.75 34.375 22.2478 34.375 26.5625Z" stroke="#AEA9B1" stroke-width="2" stroke-linecap="round"/>
</svg>
