<svg width="210" height="45" viewBox="0 0 210 45" fill="none" xmlns="http://www.w3.org/2000/svg">
<path d="M30.4227 0.61084H13.5905C6.08467 0.61084 0 6.69551 0 14.2013V31.0336C0 38.5394 6.08467 44.6241 13.5905 44.6241H30.4227C37.9286 44.6241 44.0132 38.5394 44.0132 31.0336V14.2013C44.0132 6.69551 37.9286 0.61084 30.4227 0.61084Z" fill="#1B5FFF"/>
<path d="M26.5783 31.2829L21.113 32.4674C17.5803 32.9246 12.9047 30.5796 12.4475 27.047L12.63 16.9697C12.1728 13.437 15.0659 13.4948 18.5986 13.0376L24.0638 11.8531C27.5965 11.3959 30.8383 13.8896 31.2955 17.4223L32.1475 24.0513C32.6046 27.584 30.111 30.8258 26.5783 31.2829Z" fill="url(#paint0_linear_51_7521)"/>
<path d="M22.3809 17.3187V18.6279C22.3809 18.898 22.1523 19.1266 21.8821 19.1266H16.8117C16.5831 19.1266 16.4168 19.2928 16.4168 19.5214L16.3753 20.8929C16.3753 21.2047 16.0012 21.3501 15.7726 21.1631L9.95408 16.0926C9.55925 15.7601 9.55925 15.1575 9.95408 14.825L15.648 9.77535C15.8765 9.56754 16.2506 9.73378 16.2506 10.0455V11.1261C16.2506 11.3755 16.4376 11.5625 16.687 11.5625H24.1472C30.4645 11.5625 35.5765 16.6745 35.5765 22.9918C35.5765 29.3091 30.4645 34.4211 24.1472 34.4211H13.9855C11.8243 34.4211 10.058 32.6547 10.058 30.4936C10.058 28.3116 11.8243 26.566 13.9855 26.566H21.7782C22.1107 26.566 22.4016 26.8362 22.4016 27.1895V28.3324C22.4016 28.6857 22.8173 28.8519 23.0666 28.6233L28.4903 23.7191C28.8644 23.3866 28.8644 22.8255 28.5111 22.4723L23.0666 17.0693C22.8173 16.82 22.3809 16.9862 22.3809 17.3603V17.3187Z" fill="white"/>
<path d="M53.8425 33.6727V12.4973H59.0377V33.6727H53.8425ZM56.2115 33.6727V29.3503H61.6976C62.508 29.3503 63.2561 29.1841 63.9627 28.8308C64.6484 28.4983 65.2095 27.8749 65.6459 26.9814C66.0823 26.0878 66.2901 24.8202 66.2901 23.1577C66.2901 21.4953 66.1654 20.955 65.9368 20.1446C65.7082 19.3341 65.355 18.6899 64.9186 18.212C64.4822 17.734 63.9419 17.3807 63.3185 17.1729C62.695 16.9651 61.9677 16.8612 61.1573 16.8612H56.2115V12.5389H60.9287C63.4224 12.5389 65.4796 12.9545 67.059 13.7857C68.6383 14.6169 69.802 15.8222 70.5501 17.36C71.2982 18.9185 71.6722 20.768 71.6722 22.9292C71.6722 25.0903 71.4852 26.0462 71.1112 27.2515C70.7371 28.4776 70.2176 29.4958 69.5526 30.327C68.8877 31.1583 68.1396 31.8232 67.3083 32.322C66.4771 32.8207 65.5835 33.174 64.6484 33.3818C63.7133 33.5896 62.7782 33.6935 61.8638 33.6935H56.2115V33.6727Z" fill="white"/>
<path d="M82.2002 34.13C80.6001 34.13 79.2494 33.9014 78.1688 33.4443C77.0882 32.9871 76.2154 32.3637 75.5504 31.5532C74.8854 30.7428 74.4075 29.8284 74.1166 28.8102C73.8256 27.7919 73.6802 26.7114 73.6802 25.5684C73.6802 24.4255 73.8256 23.1787 74.1373 22.0773C74.449 20.9551 74.927 19.9785 75.5712 19.1057C76.2154 18.2329 77.0674 17.5471 78.1064 17.0484C79.1455 16.5497 80.3923 16.3003 81.8469 16.3003C83.3016 16.3003 84.5484 16.5497 85.5874 17.0484C86.6265 17.5471 87.4577 18.2537 88.0811 19.1472C88.7045 20.0408 89.0993 21.0798 89.2864 22.2643C89.4734 23.4488 89.4318 24.7164 89.2032 26.0879L76.9219 26.275V23.4488L85.2342 23.2826L84.5692 24.9242C84.6939 23.9475 84.6731 23.1163 84.5276 22.4306C84.3822 21.7448 84.0705 21.2461 83.6548 20.8928C83.2185 20.5395 82.6366 20.3733 81.8885 20.3733C81.1404 20.3733 80.4754 20.5811 79.9975 20.9759C79.5195 21.3915 79.187 21.9526 79 22.7007C78.813 23.4488 78.7091 24.3008 78.7091 25.3191C78.7091 27.0438 79 28.3115 79.5818 29.1011C80.1637 29.8908 81.0365 30.2856 82.2418 30.2856C83.447 30.2856 83.1769 30.2233 83.5302 30.0986C83.8626 29.9739 84.1536 29.7869 84.3614 29.5375C84.5692 29.2881 84.7146 28.9972 84.8186 28.6439C84.9017 28.2907 84.9432 27.8958 84.9225 27.4387L89.6604 27.688C89.7228 28.3946 89.6604 29.1219 89.4526 29.87C89.2448 30.6181 88.8708 31.3039 88.3097 31.9481C87.7486 32.5922 86.9797 33.1118 85.9823 33.5274C84.9848 33.943 83.738 34.13 82.221 34.13H82.2002Z" fill="white"/>
<path d="M99.7598 34.13C98.6169 34.13 97.5778 34.0261 96.6011 33.7976C95.6245 33.569 94.7932 33.2157 94.0659 32.717C93.3594 32.2182 92.7983 31.574 92.4242 30.7428C92.0502 29.9116 91.9047 28.9141 91.9671 27.7504L96.4972 27.3556C96.5388 28.0621 96.705 28.644 96.9752 29.1011C97.2453 29.5583 97.6402 29.8908 98.1389 30.1194C98.6376 30.3272 99.2195 30.4311 99.926 30.4311C100.633 30.4311 101.152 30.3272 101.651 30.0986C102.129 29.87 102.378 29.496 102.378 28.9557C102.378 28.4154 102.295 28.457 102.129 28.2699C101.963 28.0829 101.651 27.9167 101.173 27.7504C100.716 27.5842 100.051 27.3971 99.1779 27.1893C98.0973 26.9192 97.0999 26.6283 96.2271 26.3581C95.3543 26.088 94.6062 25.7555 93.9828 25.3606C93.3594 24.9658 92.9022 24.5086 92.5697 23.9268C92.258 23.3657 92.0918 22.6592 92.0918 21.828C92.0918 20.9967 92.4035 19.646 93.0477 18.8356C93.6711 18.0043 94.5439 17.3809 95.666 16.9445C96.7882 16.5081 98.0558 16.2795 99.5104 16.2795C100.965 16.2795 102.025 16.4873 103.168 16.8822C104.311 17.2978 105.204 17.942 105.848 18.8771C106.493 19.7915 106.742 21.0175 106.576 22.5345L102.15 22.9501C102.212 22.3267 102.129 21.8072 101.9 21.3708C101.672 20.9344 101.318 20.6019 100.882 20.3733C100.425 20.1447 99.8845 20.0408 99.2403 20.0408C98.5961 20.0408 97.9519 20.1655 97.557 20.4357C97.1622 20.7058 96.9544 21.0383 96.9544 21.4539C96.9544 21.8695 97.0791 22.0565 97.3285 22.2643C97.5778 22.4929 97.9519 22.68 98.4922 22.8462C99.0117 23.0124 99.6974 23.1787 100.529 23.3657C101.256 23.5112 102.025 23.6982 102.815 23.9476C103.604 24.1762 104.352 24.5086 105.038 24.9035C105.724 25.2983 106.285 25.8178 106.7 26.462C107.137 27.1062 107.345 27.9167 107.345 28.8933C107.345 29.87 107.054 30.8675 106.472 31.6572C105.89 32.4468 105.059 33.0495 103.937 33.4858C102.815 33.9222 101.464 34.13 99.8221 34.13H99.7598Z" fill="white"/>
<path d="M114.372 34.13C113.52 34.13 112.71 33.9846 111.941 33.6728C111.172 33.3819 110.549 32.8832 110.05 32.2182C109.551 31.5532 109.302 30.6389 109.302 29.5167C109.302 28.3946 109.51 27.6257 109.905 26.9607C110.32 26.3165 110.861 25.7762 111.546 25.3814C112.232 24.9866 112.98 24.6956 113.791 24.4878C114.601 24.28 115.411 24.1138 116.201 23.9683C117.323 23.7605 118.155 23.5735 118.695 23.4488C119.256 23.3241 119.63 23.1787 119.838 22.9916C120.046 22.8254 120.149 22.576 120.149 22.2851C120.149 21.6617 119.921 21.2045 119.464 20.872C119.007 20.5603 118.404 20.3941 117.656 20.3941C116.908 20.3941 116.721 20.4772 116.243 20.6434C115.765 20.8097 115.391 21.1214 115.079 21.5578C114.788 21.9942 114.643 22.6176 114.663 23.428L110.05 23.1163C110.009 21.7656 110.216 20.6434 110.653 19.7706C111.11 18.8771 111.713 18.1913 112.502 17.6926C113.292 17.1939 114.144 16.8406 115.079 16.612C116.014 16.4042 116.928 16.3003 117.864 16.3003C119.547 16.3003 120.939 16.612 122.04 17.2562C123.121 17.8796 123.932 18.794 124.472 19.9785C124.991 21.1629 125.261 22.5968 125.261 24.3008V33.6936H120.773V28.8517H120.586C120.503 29.8077 120.191 30.7012 119.63 31.4909C119.09 32.3013 118.362 32.9247 117.49 33.4235C116.596 33.9014 115.578 34.1508 114.435 34.1508L114.372 34.13ZM116.513 30.348C116.866 30.348 117.261 30.2856 117.677 30.1401C118.092 29.9947 118.487 29.7661 118.861 29.4544C119.235 29.1427 119.547 28.6855 119.775 28.1244C120.004 27.5634 120.129 26.8568 120.129 26.0256V25.2567L121.001 25.1528C120.835 25.423 120.544 25.6515 120.149 25.8178C119.755 25.984 119.318 26.1295 118.819 26.2126C118.321 26.3165 117.822 26.3996 117.323 26.5035C116.825 26.6075 116.347 26.7321 115.931 26.8984C115.495 27.0646 115.162 27.2724 114.892 27.5426C114.622 27.8127 114.497 28.1868 114.497 28.6439C114.497 29.1011 114.705 29.6206 115.1 29.9116C115.495 30.2025 115.973 30.348 116.534 30.348H116.513Z" fill="white"/>
<path d="M128.025 38.4316V16.7367H132.576V21.9734H132.805C133.034 20.7058 133.387 19.6667 133.865 18.8147C134.343 17.9627 134.945 17.3393 135.673 16.9237C136.4 16.5081 137.294 16.3003 138.353 16.3003C139.413 16.3003 140.805 16.6328 141.741 17.3185C142.676 18.0043 143.382 18.981 143.86 20.3109C144.338 21.6201 144.587 23.241 144.587 25.1736C144.587 27.1062 144.317 28.9557 143.777 30.2648C143.237 31.5948 142.489 32.5715 141.554 33.1949C140.618 33.8183 139.538 34.1508 138.353 34.1508C137.169 34.1508 136.545 33.943 135.797 33.5482C135.049 33.1325 134.447 32.5091 133.969 31.6779C133.491 30.8259 133.158 29.7661 132.95 28.4777H132.659C132.763 29.1011 132.867 29.7453 132.95 30.4103C133.034 31.0753 133.096 31.7402 133.158 32.4052C133.221 33.0494 133.241 33.6936 133.241 34.2755V38.4524H128.046L128.025 38.4316ZM136.379 29.8492C137.065 29.8492 137.626 29.6414 138.062 29.205C138.499 28.7686 138.831 28.2076 139.018 27.5218C139.226 26.836 139.33 26.0879 139.33 25.3191C139.33 24.5502 139.226 23.6982 138.998 22.9916C138.769 22.3059 138.436 21.7448 138 21.3292C137.564 20.9136 137.023 20.7058 136.379 20.7058C135.735 20.7058 135.569 20.7889 135.195 20.9759C134.8 21.1629 134.467 21.4331 134.176 21.8071C133.886 22.1812 133.636 22.6591 133.449 23.241C133.262 23.8229 133.179 24.5086 133.179 25.3191V25.5061C133.179 26.1503 133.241 26.7113 133.366 27.1685C133.491 27.6465 133.657 28.0413 133.886 28.3946C134.093 28.7271 134.343 29.018 134.634 29.2258C134.904 29.4336 135.195 29.5998 135.506 29.683C135.797 29.7869 136.109 29.8284 136.4 29.8284L136.379 29.8492Z" fill="white"/>
<path d="M155.285 34.13C153.685 34.13 152.335 33.9014 151.254 33.4443C150.173 32.9871 149.301 32.3637 148.636 31.5532C147.971 30.7428 147.493 29.8284 147.202 28.8102C146.911 27.7919 146.765 26.7114 146.765 25.5684C146.765 24.4255 146.911 23.1787 147.223 22.0773C147.534 20.9551 148.012 19.9785 148.656 19.1057C149.301 18.2329 150.153 17.5471 151.192 17.0484C152.231 16.5497 153.478 16.3003 154.932 16.3003C156.387 16.3003 157.634 16.5497 158.673 17.0484C159.712 17.5471 160.543 18.2537 161.166 19.1472C161.79 20.0408 162.185 21.0798 162.372 22.2643C162.559 23.4488 162.517 24.7164 162.288 26.0879L150.007 26.275V23.4488L158.319 23.2826L157.654 24.9242C157.779 23.9475 157.758 23.1163 157.613 22.4306C157.447 21.7656 157.156 21.2461 156.74 20.8928C156.304 20.5395 155.722 20.3733 154.974 20.3733C154.226 20.3733 153.561 20.5811 153.083 20.9759C152.605 21.3915 152.272 21.9526 152.085 22.7007C151.898 23.4488 151.794 24.3008 151.794 25.3191C151.794 27.0438 152.085 28.3115 152.667 29.1011C153.249 29.8908 154.122 30.2856 155.327 30.2856C156.532 30.2856 156.262 30.2233 156.615 30.0986C156.948 29.9739 157.239 29.7869 157.447 29.5375C157.654 29.2881 157.8 28.9972 157.904 28.6439C157.987 28.2907 158.028 27.8958 158.008 27.4387L162.746 27.688C162.808 28.3946 162.746 29.1219 162.538 29.87C162.33 30.6181 161.956 31.3039 161.395 31.9481C160.834 32.5922 160.065 33.1118 159.067 33.5274C158.07 33.943 156.823 34.13 155.306 34.13H155.285Z" fill="white"/>
<path d="M172.276 38.7432C170.364 38.7432 168.868 38.5977 167.745 38.286C166.623 37.9951 165.834 37.5795 165.376 37.06C164.899 36.5404 164.67 35.9378 164.67 35.2521C164.67 34.5663 165.044 33.548 165.792 32.987C166.54 32.4259 167.642 32.0311 169.055 31.8233V31.657C167.974 31.657 167.101 31.47 166.478 31.0959C165.854 30.7219 165.543 30.2024 165.543 29.5374C165.543 28.8724 165.834 28.3529 166.395 27.875C166.956 27.3762 167.891 27.1269 169.179 27.1269V26.8983C168.016 26.6281 167.101 26.0878 166.415 25.2982C165.73 24.5085 165.397 23.4903 165.397 22.2226C165.397 20.955 165.688 20.1446 166.249 19.3341C166.81 18.5237 167.642 17.8795 168.743 17.4223C169.824 16.9652 171.153 16.7366 172.712 16.7366H181.149V20.7057L175.351 19.9576V20.2069C177.117 20.4355 178.323 20.8511 178.967 21.4122C179.59 21.9733 179.923 22.659 179.923 23.4487C179.923 24.2384 179.673 24.9449 179.196 25.5683C178.718 26.1917 177.969 26.6697 176.972 27.0229C175.975 27.3762 174.686 27.5425 173.148 27.5425C171.611 27.5425 172.192 27.5217 171.715 27.4801C171.237 27.4386 170.821 27.3762 170.488 27.2931C170.114 27.4386 169.844 27.6048 169.636 27.7503C169.429 27.9165 169.325 28.0828 169.325 28.249C169.325 28.4152 169.366 28.436 169.449 28.4984C169.533 28.5607 169.657 28.5815 169.824 28.6023C169.99 28.6231 170.177 28.6438 170.385 28.6438H175.517C175.975 28.6438 176.536 28.6646 177.201 28.7269C177.866 28.7893 178.551 28.9348 179.216 29.2049C179.881 29.4751 180.442 29.9114 180.9 30.5349C181.357 31.1583 181.565 32.0311 181.565 33.174C181.565 34.3169 181.232 35.5014 180.546 36.3119C179.881 37.1223 178.842 37.7249 177.492 38.1198C176.12 38.5146 174.374 38.7224 172.255 38.7224L172.276 38.7432ZM172.276 34.1922C173.709 34.1922 174.769 34.1507 175.455 34.0468C176.141 33.9429 176.598 33.8182 176.806 33.6519C177.014 33.4857 177.117 33.2987 177.117 33.0701C177.117 32.8415 177.034 32.5298 176.868 32.3635C176.702 32.1973 176.473 32.0726 176.224 31.9895C175.975 31.9064 175.725 31.8648 175.476 31.8648C175.226 31.8648 175.039 31.8648 174.873 31.8648H170.551C169.865 32.0934 169.408 32.322 169.159 32.5298C168.909 32.7376 168.784 32.9662 168.784 33.2156C168.784 33.4649 168.93 33.7351 169.221 33.8805C169.512 34.026 169.907 34.1091 170.447 34.1507C170.966 34.1922 171.59 34.213 172.296 34.213L172.276 34.1922ZM172.837 24.7579C173.522 24.7579 174.042 24.5501 174.416 24.1137C174.79 23.6773 174.977 23.0954 174.977 22.3473C174.977 21.5992 174.79 20.9966 174.395 20.5394C174 20.0822 173.481 19.8537 172.795 19.8537C172.109 19.8537 171.611 20.0822 171.216 20.5394C170.821 20.9966 170.613 21.5992 170.613 22.3473C170.613 23.0954 170.696 23.2617 170.863 23.6357C171.029 24.0098 171.278 24.2799 171.611 24.4669C171.943 24.654 172.338 24.7579 172.816 24.7579H172.837Z" fill="white"/>
<path d="M188.588 34.13C187.736 34.13 186.926 33.9846 186.157 33.6728C185.388 33.3611 184.765 32.8832 184.266 32.2182C183.767 31.5532 183.518 30.6389 183.518 29.5167C183.518 28.3946 183.726 27.6257 184.12 26.9607C184.536 26.3165 185.076 25.7762 185.762 25.3814C186.448 24.9866 187.196 24.6956 188.006 24.4878C188.817 24.28 189.627 24.1138 190.417 23.9683C191.539 23.7605 192.37 23.5735 192.911 23.4488C193.472 23.3241 193.846 23.1787 194.054 22.9916C194.261 22.8254 194.365 22.576 194.365 22.2851C194.365 21.6617 194.137 21.2045 193.679 20.872C193.222 20.5603 192.62 20.3941 191.872 20.3941C191.123 20.3941 190.936 20.4772 190.459 20.6434C189.981 20.8097 189.607 21.1214 189.295 21.5578C189.004 21.9942 188.858 22.6176 188.879 23.428L184.266 23.1163C184.224 21.7656 184.432 20.6434 184.869 19.7706C185.326 18.8771 185.928 18.1913 186.718 17.6926C187.508 17.1939 188.36 16.8406 189.295 16.612C190.23 16.4042 191.144 16.3003 192.079 16.3003C193.763 16.3003 195.155 16.612 196.256 17.2562C197.337 17.8796 198.147 18.794 198.688 19.9785C199.207 21.1629 199.477 22.5968 199.477 24.3008V33.6936H194.989V28.8517H194.802C194.719 29.8077 194.407 30.7012 193.846 31.4909C193.305 32.3013 192.578 32.9247 191.705 33.4235C190.812 33.9014 189.794 34.1508 188.651 34.1508L188.588 34.13ZM190.729 30.348C191.082 30.348 191.477 30.2856 191.892 30.1401C192.308 29.9947 192.703 29.7661 193.077 29.4544C193.451 29.1427 193.763 28.6855 193.991 28.1244C194.22 27.5634 194.344 26.8568 194.344 26.0256V25.2567L195.217 25.1528C195.051 25.423 194.76 25.6515 194.365 25.8178C193.97 25.984 193.534 26.1295 193.035 26.2126C192.537 26.3165 192.038 26.3996 191.539 26.5035C191.04 26.6075 190.562 26.7321 190.147 26.8984C189.71 27.0646 189.378 27.2724 189.108 27.5426C188.838 27.8127 188.713 28.1868 188.713 28.6439C188.713 29.1011 188.921 29.6206 189.316 29.9116C189.71 30.2025 190.188 30.348 190.749 30.348H190.729Z" fill="white"/>
<path d="M206.904 15.3234H202.29L204.223 11.2712H210L206.924 15.3234H206.904ZM202.29 33.6727V16.7365H207.485V33.6727H202.29Z" fill="white"/>
<defs>
<linearGradient id="paint0_linear_51_7521" x1="9.31264" y1="22.0407" x2="28.8563" y2="22.1771" gradientUnits="userSpaceOnUse">
<stop stop-color="#FE7A1B" stop-opacity="0"/>
<stop offset="0.2" stop-color="#FE7A1B" stop-opacity="0.2"/>
<stop offset="0.3" stop-color="#FE7A1B" stop-opacity="0.4"/>
<stop offset="0.4" stop-color="#FE7A1B" stop-opacity="0.6"/>
<stop offset="0.5" stop-color="#FE7A1B" stop-opacity="0.8"/>
<stop offset="0.6" stop-color="#FE7A1B" stop-opacity="0.9"/>
<stop offset="0.7" stop-color="#FE7A1B"/>
<stop offset="0.8" stop-color="#FE7A1B"/>
</linearGradient>
</defs>
</svg>
