<svg width="18" height="18" viewBox="0 0 18 18" fill="none" xmlns="http://www.w3.org/2000/svg">
<path d="M14.8322 17.2286C16.2704 16.8589 17.3332 15.5536 17.3332 14V4.00002C17.3332 2.15907 15.8408 0.666687 13.9998 0.666687H3.99984C2.15889 0.666687 0.666504 2.15907 0.666504 4.00002V14C0.666504 15.5536 1.72927 16.8589 3.16743 17.2286M14.8322 17.2286C14.5662 17.297 14.2873 17.3334 13.9998 17.3334H3.99984C3.71242 17.3334 3.4335 17.297 3.16743 17.2286M14.8322 17.2286C14.7764 14.0553 12.1865 11.5 8.99984 11.5C5.81318 11.5 3.22332 14.0553 3.16743 17.2286M11.4998 6.50002C11.4998 5.11931 10.3805 4.00002 8.99984 4.00002C7.61913 4.00002 6.49984 5.11931 6.49984 6.50002C6.49984 7.88073 7.61913 9.00002 8.99984 9.00002C10.3805 9.00002 11.4998 7.88073 11.4998 6.50002Z" stroke="#938F96"/>
</svg>
