<svg width="221" height="47" viewBox="0 0 221 47" fill="none" xmlns="http://www.w3.org/2000/svg">
<path d="M32.0163 0.484959H14.3024C6.40339 0.484959 0 6.88835 0 14.7873V32.5013C0 40.4002 6.40339 46.8036 14.3024 46.8036H32.0163C39.9153 46.8036 46.3187 40.4002 46.3187 32.5013V14.7873C46.3187 6.88835 39.9153 0.484959 32.0163 0.484959Z" fill="#1B5FFF"/>
<path d="M27.9706 32.7637L22.219 34.0102C18.5013 34.4914 13.5807 32.0236 13.0996 28.3058L13.2916 17.7007C12.8105 13.983 15.8551 14.0438 19.5729 13.5627L25.3244 12.3161C29.0422 11.835 32.4537 14.4593 32.9348 18.177L33.8315 25.1533C34.3126 28.871 31.6883 32.2826 27.9706 32.7637Z" fill="url(#paint0_linear_51_7754)"/>
<path d="M23.5529 18.0677V19.4454C23.5529 19.7297 23.3123 19.9703 23.028 19.9703H17.692C17.4514 19.9703 17.2765 20.1452 17.2765 20.3858L17.2327 21.8292C17.2327 22.1572 16.8391 22.3103 16.5985 22.1135L10.4752 16.7774C10.0597 16.4275 10.0597 15.7933 10.4752 15.4434L16.4673 10.1292C16.7079 9.91052 17.1015 10.0855 17.1015 10.4135V11.5507C17.1015 11.8131 17.2984 12.0099 17.5608 12.0099H25.4118C32.06 12.0099 37.4398 17.3897 37.4398 24.0379C37.4398 30.6861 32.06 36.0659 25.4118 36.0659H14.7178C12.4434 36.0659 10.5846 34.207 10.5846 31.9327C10.5846 29.6364 12.4434 27.7994 14.7178 27.7994H22.9187C23.2686 27.7994 23.5748 28.0837 23.5748 28.4555V29.6583C23.5748 30.0301 24.0122 30.205 24.2746 29.9644L29.9824 24.8033C30.3761 24.4534 30.3761 23.863 30.0043 23.4912L24.2746 17.8052C24.0122 17.5428 23.5529 17.7178 23.5529 18.1114V18.0677Z" fill="white"/>
<path d="M56.6631 35.2786V12.9941H62.1304V35.2786H56.6631ZM59.1562 35.2786V30.7299H64.9296C65.7825 30.7299 66.5698 30.5549 67.3133 30.1831C68.035 29.8332 68.6255 29.1772 69.0847 28.2368C69.544 27.2964 69.7627 25.9624 69.7627 24.2129C69.7627 22.4634 69.6314 21.8948 69.3909 21.0419C69.1503 20.189 68.7786 19.511 68.3193 19.0081C67.8601 18.5051 67.2915 18.1333 66.6354 17.9146C65.9793 17.6959 65.2139 17.5866 64.361 17.5866H59.1562V13.0378H64.1204C66.7447 13.0378 68.9098 13.4752 70.5718 14.3499C72.2339 15.2247 73.4585 16.4931 74.2458 18.1114C75.0331 19.7516 75.4267 21.698 75.4267 23.9723C75.4267 26.2467 75.2299 27.2527 74.8363 28.5211C74.4426 29.8114 73.8959 30.883 73.1961 31.7577C72.4963 32.6325 71.709 33.3323 70.8342 33.8572C69.9595 34.382 69.0191 34.7538 68.035 34.9725C67.0509 35.1912 66.0668 35.3005 65.1045 35.3005H59.1562V35.2786Z" fill="#111827"/>
<path d="M86.5059 35.7597C84.8219 35.7597 83.4005 35.5192 82.2633 35.0381C81.1261 34.5569 80.2076 33.9009 79.5078 33.048C78.808 32.1951 78.305 31.2328 77.9988 30.1613C77.6926 29.0897 77.5396 27.9525 77.5396 26.7497C77.5396 25.5469 77.6926 24.2347 78.0207 23.0757C78.3487 21.8948 78.8517 20.8669 79.5296 19.9484C80.2076 19.0299 81.1042 18.3082 82.1977 17.7834C83.2911 17.2585 84.6033 16.9961 86.1341 16.9961C87.6649 16.9961 88.9771 17.2585 90.0705 17.7834C91.164 18.3082 92.0387 19.0518 92.6948 19.9921C93.3509 20.9325 93.7664 22.026 93.9632 23.2725C94.16 24.519 94.1163 25.8531 93.8757 27.2964L80.9511 27.4932V24.519L89.6987 24.3441L88.9989 26.0717C89.1301 25.0439 89.1083 24.1691 88.9552 23.4475C88.8021 22.7258 88.4741 22.2009 88.0367 21.8291C87.5775 21.4574 86.9651 21.2824 86.1778 21.2824C85.3905 21.2824 84.6907 21.5011 84.1877 21.9166C83.6848 22.354 83.3348 22.9445 83.138 23.7318C82.9412 24.519 82.8319 25.4157 82.8319 26.4873C82.8319 28.3024 83.138 29.6364 83.7504 30.4674C84.3627 31.2985 85.2812 31.714 86.5496 31.714C87.818 31.714 87.5337 31.6484 87.9055 31.5171C88.2554 31.3859 88.5616 31.1891 88.7802 30.9267C88.9989 30.6643 89.152 30.3581 89.2614 29.9863C89.3488 29.6145 89.3926 29.199 89.3707 28.7179L94.3569 28.9803C94.4225 29.7239 94.3569 30.4893 94.1382 31.2766C93.9195 32.0639 93.5258 32.7855 92.9354 33.4635C92.3449 34.1414 91.5357 34.6882 90.486 35.1255C89.4363 35.5629 88.1242 35.7597 86.5277 35.7597H86.5059Z" fill="#111827"/>
<path d="M104.985 35.7598C103.783 35.7598 102.689 35.6504 101.661 35.4099C100.633 35.1693 99.7587 34.7975 98.9932 34.2727C98.2497 33.7478 97.6592 33.0699 97.2656 32.1951C96.8719 31.3203 96.7189 30.2706 96.7845 29.046L101.552 28.6305C101.596 29.374 101.771 29.9863 102.055 30.4675C102.339 30.9486 102.755 31.2985 103.28 31.539C103.804 31.7577 104.417 31.8671 105.16 31.8671C105.904 31.8671 106.451 31.7577 106.975 31.5172C107.478 31.2766 107.741 30.883 107.741 30.3144C107.741 29.7458 107.653 29.7895 107.478 29.5927C107.303 29.3959 106.975 29.2209 106.472 29.046C105.991 28.871 105.292 28.6742 104.373 28.4555C103.236 28.1712 102.186 27.865 101.268 27.5807C100.349 27.2964 99.5618 26.9465 98.9058 26.531C98.2497 26.1155 97.7686 25.6344 97.4187 25.0221C97.0906 24.4316 96.9157 23.688 96.9157 22.8133C96.9157 21.9385 97.2437 20.517 97.9216 19.6641C98.5777 18.7894 99.4962 18.1333 100.677 17.6741C101.858 17.2148 103.192 16.9742 104.723 16.9742C106.254 16.9742 107.369 17.1929 108.572 17.6084C109.775 18.0458 110.715 18.7238 111.393 19.7079C112.071 20.6701 112.333 21.9604 112.158 23.5568L107.5 23.9942C107.566 23.3381 107.478 22.7914 107.238 22.3322C106.997 21.8729 106.626 21.523 106.166 21.2824C105.685 21.0419 105.117 20.9325 104.439 20.9325C103.761 20.9325 103.083 21.0638 102.667 21.3481C102.252 21.6323 102.033 21.9823 102.033 22.4196C102.033 22.857 102.164 23.0538 102.427 23.2725C102.689 23.5131 103.083 23.7099 103.651 23.8849C104.198 24.0598 104.92 24.2348 105.795 24.4316C106.56 24.5847 107.369 24.7815 108.2 25.0439C109.031 25.2845 109.818 25.6344 110.54 26.0499C111.262 26.4654 111.852 27.0121 112.29 27.6901C112.749 28.368 112.968 29.2209 112.968 30.2488C112.968 31.2766 112.661 32.3263 112.049 33.1573C111.437 33.9884 110.562 34.6226 109.381 35.0818C108.2 35.5411 106.779 35.7598 105.051 35.7598H104.985Z" fill="#111827"/>
<path d="M120.363 35.7597C119.467 35.7597 118.614 35.6067 117.805 35.2786C116.996 34.9725 116.339 34.4476 115.815 33.7478C115.29 33.048 115.027 32.0857 115.027 30.9048C115.027 29.7239 115.246 28.9147 115.662 28.2149C116.099 27.537 116.668 26.9684 117.389 26.5529C118.111 26.1374 118.898 25.8312 119.751 25.6125C120.604 25.3938 121.457 25.2188 122.288 25.0658C123.469 24.8471 124.344 24.6503 124.912 24.519C125.503 24.3878 125.896 24.2347 126.115 24.0379C126.334 23.863 126.443 23.6005 126.443 23.2944C126.443 22.6383 126.202 22.1572 125.721 21.8073C125.24 21.4792 124.606 21.3043 123.819 21.3043C123.031 21.3043 122.835 21.3918 122.332 21.5667C121.829 21.7417 121.435 22.0697 121.107 22.529C120.801 22.9882 120.648 23.6443 120.67 24.4972L115.815 24.1691C115.771 22.7476 115.99 21.5667 116.449 20.6482C116.93 19.7078 117.564 18.9862 118.395 18.4613C119.226 17.9365 120.123 17.5647 121.107 17.3241C122.091 17.1054 123.053 16.9961 124.037 16.9961C125.809 16.9961 127.274 17.3241 128.433 18.0021C129.57 18.6581 130.423 19.6204 130.992 20.8669C131.538 22.1134 131.823 23.6224 131.823 25.4157V35.3005H127.099V30.205H126.902C126.815 31.211 126.487 32.1513 125.896 32.9824C125.328 33.8353 124.562 34.4913 123.644 35.0162C122.703 35.5192 121.632 35.7816 120.429 35.7816L120.363 35.7597ZM122.616 31.7796C122.988 31.7796 123.403 31.714 123.841 31.5609C124.278 31.4078 124.693 31.1672 125.087 30.8392C125.481 30.5112 125.809 30.03 126.049 29.4396C126.29 28.8491 126.421 28.1056 126.421 27.2308V26.4216L127.34 26.3123C127.165 26.5966 126.859 26.8372 126.443 27.0121C126.027 27.1871 125.568 27.3401 125.043 27.4276C124.519 27.537 123.994 27.6244 123.469 27.7338C122.944 27.8431 122.441 27.9744 122.004 28.1493C121.544 28.3243 121.194 28.5429 120.91 28.8272C120.626 29.1115 120.495 29.5052 120.495 29.9863C120.495 30.4674 120.713 31.0142 121.129 31.3203C121.544 31.6265 122.047 31.7796 122.638 31.7796H122.616Z" fill="#111827"/>
<path d="M134.731 40.2866V17.4553H139.521V22.9663H139.761C140.002 21.6323 140.373 20.5389 140.876 19.6422C141.379 18.7456 142.014 18.0895 142.779 17.6522C143.544 17.2148 144.485 16.9961 145.6 16.9961C146.715 16.9961 148.181 17.346 149.165 18.0677C150.149 18.7893 150.892 19.8172 151.395 21.2168C151.898 22.5946 152.161 24.3003 152.161 26.3342C152.161 28.368 151.877 30.3143 151.308 31.6921C150.739 33.0917 149.952 34.1196 148.968 34.7756C147.984 35.4317 146.847 35.7816 145.6 35.7816C144.354 35.7816 143.698 35.5629 142.91 35.1474C142.123 34.71 141.489 34.054 140.986 33.1792C140.483 32.2826 140.133 31.1672 139.914 29.8114H139.608C139.717 30.4674 139.827 31.1454 139.914 31.8452C140.002 32.545 140.067 33.2448 140.133 33.9446C140.198 34.6225 140.22 35.3005 140.22 35.9128V40.3085H134.753L134.731 40.2866ZM143.523 31.2547C144.244 31.2547 144.835 31.036 145.294 30.5768C145.753 30.1175 146.103 29.5271 146.3 28.8054C146.519 28.0837 146.628 27.2964 146.628 26.4873C146.628 25.6781 146.519 24.7815 146.278 24.0379C146.038 23.3162 145.688 22.7258 145.228 22.2884C144.769 21.851 144.201 21.6323 143.523 21.6323C142.845 21.6323 142.67 21.7198 142.276 21.9166C141.861 22.1134 141.511 22.3977 141.204 22.7914C140.898 23.185 140.636 23.688 140.439 24.3003C140.242 24.9127 140.155 25.6344 140.155 26.4873V26.6841C140.155 27.362 140.22 27.9525 140.352 28.4336C140.483 28.9366 140.658 29.3521 140.898 29.7239C141.117 30.0738 141.379 30.38 141.686 30.5986C141.97 30.8173 142.276 30.9923 142.604 31.0798C142.91 31.1891 143.238 31.2328 143.544 31.2328L143.523 31.2547Z" fill="#111827"/>
<path d="M163.419 35.7597C161.736 35.7597 160.314 35.5192 159.177 35.0381C158.04 34.5569 157.121 33.9009 156.421 33.048C155.722 32.1951 155.219 31.2328 154.912 30.1613C154.606 29.0897 154.453 27.9525 154.453 26.7497C154.453 25.5469 154.606 24.2347 154.934 23.0757C155.262 21.8948 155.765 20.8669 156.443 19.9484C157.121 19.0299 158.018 18.3082 159.111 17.7834C160.205 17.2585 161.517 16.9961 163.048 16.9961C164.579 16.9961 165.891 17.2585 166.984 17.7834C168.078 18.3082 168.952 19.0518 169.608 19.9921C170.264 20.9325 170.68 22.026 170.877 23.2725C171.074 24.519 171.03 25.8531 170.789 27.2964L157.865 27.4932V24.519L166.612 24.3441L165.913 26.0717C166.044 25.0439 166.022 24.1691 165.869 23.4475C165.694 22.7476 165.388 22.2009 164.95 21.8291C164.491 21.4574 163.879 21.2824 163.091 21.2824C162.304 21.2824 161.604 21.5011 161.101 21.9166C160.598 22.354 160.248 22.9445 160.052 23.7318C159.855 24.519 159.745 25.4157 159.745 26.4873C159.745 28.3024 160.052 29.6364 160.664 30.4674C161.276 31.2985 162.195 31.714 163.463 31.714C164.732 31.714 164.447 31.6484 164.819 31.5171C165.169 31.3859 165.475 31.1891 165.694 30.9267C165.913 30.6643 166.066 30.3581 166.175 29.9863C166.262 29.6145 166.306 29.199 166.284 28.7179L171.27 28.9803C171.336 29.7239 171.27 30.4893 171.052 31.2766C170.833 32.0639 170.439 32.7855 169.849 33.4635C169.258 34.1414 168.449 34.6882 167.4 35.1255C166.35 35.5629 165.038 35.7597 163.441 35.7597H163.419Z" fill="#111827"/>
<path d="M181.299 40.6147C179.288 40.6147 177.713 40.4616 176.532 40.1336C175.351 39.8274 174.52 39.39 174.039 38.8433C173.536 38.2966 173.295 37.6624 173.295 36.9407C173.295 36.219 173.689 35.1474 174.476 34.557C175.264 33.9665 176.423 33.551 177.91 33.3323V33.1573C176.773 33.1573 175.854 32.9605 175.198 32.5669C174.542 32.1732 174.214 31.6265 174.214 30.9267C174.214 30.2269 174.52 29.6802 175.111 29.1772C175.701 28.6523 176.685 28.3899 178.041 28.3899V28.1493C176.816 27.865 175.854 27.2964 175.132 26.4654C174.411 25.6344 174.061 24.5628 174.061 23.2288C174.061 21.8948 174.367 21.0419 174.957 20.189C175.548 19.3361 176.423 18.6582 177.582 18.177C178.719 17.6959 180.119 17.4554 181.759 17.4554H190.638V21.6324L184.536 20.8451V21.1075C186.395 21.3481 187.663 21.7854 188.341 22.3759C188.997 22.9664 189.347 23.688 189.347 24.5191C189.347 25.3501 189.085 26.0936 188.582 26.7497C188.079 27.4058 187.292 27.9088 186.242 28.2806C185.192 28.6523 183.836 28.8273 182.218 28.8273C180.6 28.8273 181.212 28.8054 180.709 28.7617C180.206 28.7179 179.769 28.6523 179.419 28.5648C179.025 28.7179 178.741 28.8929 178.522 29.046C178.303 29.2209 178.194 29.3959 178.194 29.5708C178.194 29.7458 178.238 29.7676 178.325 29.8333C178.413 29.8989 178.544 29.9207 178.719 29.9426C178.894 29.9645 179.091 29.9863 179.309 29.9863H184.711C185.192 29.9863 185.783 30.0082 186.482 30.0738C187.182 30.1394 187.904 30.2925 188.604 30.5768C189.304 30.8611 189.894 31.3203 190.375 31.9764C190.856 32.6325 191.075 33.551 191.075 34.7538C191.075 35.9566 190.725 37.2031 190.003 38.056C189.304 38.9089 188.21 39.5431 186.789 39.9586C185.345 40.3741 183.508 40.5928 181.278 40.5928L181.299 40.6147ZM181.299 35.8254C182.808 35.8254 183.924 35.7816 184.645 35.6723C185.367 35.5629 185.848 35.4317 186.067 35.2568C186.286 35.0818 186.395 34.885 186.395 34.6444C186.395 34.4039 186.308 34.0758 186.133 33.9009C185.958 33.7259 185.717 33.5947 185.455 33.5073C185.192 33.4198 184.93 33.376 184.667 33.376C184.405 33.376 184.208 33.376 184.033 33.376H179.484C178.763 33.6166 178.282 33.8572 178.019 34.0759C177.757 34.2945 177.625 34.5351 177.625 34.7975C177.625 35.06 177.779 35.3443 178.085 35.4973C178.391 35.6504 178.806 35.7379 179.375 35.7816C179.922 35.8254 180.578 35.8472 181.321 35.8472L181.299 35.8254ZM181.89 25.8968C182.612 25.8968 183.158 25.6781 183.552 25.2189C183.946 24.7596 184.142 24.1473 184.142 23.36C184.142 22.5727 183.946 21.9385 183.53 21.4574C183.115 20.9763 182.568 20.7357 181.846 20.7357C181.125 20.7357 180.6 20.9763 180.184 21.4574C179.769 21.9385 179.55 22.5727 179.55 23.36C179.55 24.1473 179.637 24.3222 179.812 24.7159C179.987 25.1095 180.25 25.3938 180.6 25.5907C180.95 25.7875 181.365 25.8968 181.868 25.8968H181.89Z" fill="#111827"/>
<path d="M198.467 35.7597C197.57 35.7597 196.717 35.6067 195.908 35.2786C195.099 34.9506 194.443 34.4476 193.918 33.7478C193.393 33.048 193.131 32.0857 193.131 30.9048C193.131 29.7239 193.349 28.9147 193.765 28.2149C194.202 27.537 194.771 26.9684 195.492 26.5529C196.214 26.1374 197.001 25.8312 197.854 25.6125C198.707 25.3938 199.56 25.2188 200.391 25.0658C201.572 24.8471 202.447 24.6503 203.015 24.519C203.606 24.3878 204 24.2347 204.218 24.0379C204.437 23.863 204.546 23.6005 204.546 23.2944C204.546 22.6383 204.306 22.1572 203.825 21.8073C203.343 21.4792 202.709 21.3043 201.922 21.3043C201.135 21.3043 200.938 21.3918 200.435 21.5667C199.932 21.7417 199.538 22.0697 199.21 22.529C198.904 22.9882 198.751 23.6443 198.773 24.4972L193.918 24.1691C193.874 22.7476 194.093 21.5667 194.552 20.6482C195.033 19.7078 195.667 18.9862 196.498 18.4613C197.329 17.9365 198.226 17.5647 199.21 17.3241C200.194 17.1054 201.157 16.9961 202.141 16.9961C203.912 16.9961 205.377 17.3241 206.536 18.0021C207.674 18.6581 208.526 19.6204 209.095 20.8669C209.642 22.1134 209.926 23.6224 209.926 25.4157V35.3005H205.202V30.205H205.006C204.918 31.211 204.59 32.1513 204 32.9824C203.431 33.8353 202.666 34.4913 201.747 35.0162C200.807 35.5192 199.735 35.7816 198.532 35.7816L198.467 35.7597ZM200.719 31.7796C201.091 31.7796 201.506 31.714 201.944 31.5609C202.381 31.4078 202.797 31.1672 203.19 30.8392C203.584 30.5112 203.912 30.03 204.153 29.4396C204.393 28.8491 204.524 28.1056 204.524 27.2308V26.4216L205.443 26.3123C205.268 26.5966 204.962 26.8372 204.546 27.0121C204.131 27.1871 203.671 27.3401 203.147 27.4276C202.622 27.537 202.097 27.6244 201.572 27.7338C201.047 27.8431 200.544 27.9744 200.107 28.1493C199.648 28.3243 199.298 28.5429 199.013 28.8272C198.729 29.1115 198.598 29.5052 198.598 29.9863C198.598 30.4674 198.817 31.0142 199.232 31.3203C199.648 31.6265 200.151 31.7796 200.741 31.7796H200.719Z" fill="#111827"/>
<path d="M217.741 15.9683H212.886L214.92 11.7038H221L217.763 15.9683H217.741ZM212.886 35.2786V17.4554H218.354V35.2786H212.886Z" fill="#111827"/>
<defs>
<linearGradient id="paint0_linear_51_7754" x1="9.80053" y1="23.0373" x2="30.3679" y2="23.1809" gradientUnits="userSpaceOnUse">
<stop stop-color="#FE7A1B" stop-opacity="0"/>
<stop offset="0.2" stop-color="#FE7A1B" stop-opacity="0.2"/>
<stop offset="0.3" stop-color="#FE7A1B" stop-opacity="0.4"/>
<stop offset="0.4" stop-color="#FE7A1B" stop-opacity="0.6"/>
<stop offset="0.5" stop-color="#FE7A1B" stop-opacity="0.8"/>
<stop offset="0.6" stop-color="#FE7A1B" stop-opacity="0.9"/>
<stop offset="0.7" stop-color="#FE7A1B"/>
<stop offset="0.8" stop-color="#FE7A1B"/>
</linearGradient>
</defs>
</svg>
