<svg width="148" height="41" viewBox="0 0 148 41" fill="none" xmlns="http://www.w3.org/2000/svg">
<path d="M43.7525 9.09031L42.7054 12.2426H41.3591L44.7849 2.22168H46.3555L49.7962 12.2426H48.4048L47.3279 9.09031H43.7528H43.7525ZM47.0585 8.07936L46.0712 5.19593C45.8469 4.54102 45.6973 3.94653 45.5476 3.36687H45.5178C45.3682 3.96136 45.2036 4.57141 45.0092 5.18037L44.0219 8.07972H47.0585V8.07936Z" fill="white"/>
<path d="M51.4312 5.04663L52.8521 9.08973C53.0913 9.74464 53.286 10.3391 53.4357 10.9333H53.4808C53.6454 10.3388 53.8547 9.74464 54.0943 9.08973L55.5003 5.04663H56.8768L54.0345 12.242H52.7782L50.0259 5.04663H51.4319H51.4312Z" fill="white"/>
<path d="M62.0709 12.2426L61.966 11.3358H61.9209C61.5171 11.901 60.7395 12.4061 59.707 12.4061C58.2413 12.4061 57.4932 11.3807 57.4932 10.3397C57.4932 8.60004 59.0488 7.64878 61.8462 7.66326V7.51563C61.8462 6.92006 61.6817 5.84976 60.2007 5.84976C59.5275 5.84976 58.8245 6.05781 58.3159 6.38491L58.017 5.52303C58.6156 5.13695 59.4828 4.88403 60.3955 4.88403C62.6093 4.88403 63.1477 6.38527 63.1477 7.8268V10.5177C63.1477 11.1423 63.1776 11.7527 63.2675 12.2429H62.0709V12.2426ZM61.8761 8.57073C60.4402 8.54033 58.8096 8.79362 58.8096 10.1903C58.8096 11.0377 59.3783 11.4397 60.0514 11.4397C60.994 11.4397 61.5921 10.8452 61.8015 10.2351C61.8466 10.1009 61.8764 9.95292 61.8764 9.81868V8.57073H61.8761Z" fill="white"/>
<path d="M66.7411 3.025C66.7564 3.47042 66.4273 3.82754 65.9034 3.82754C65.4396 3.82754 65.1108 3.47042 65.1108 3.025C65.1108 2.57959 65.4549 2.20654 65.9336 2.20654C66.4124 2.20654 66.7411 2.56367 66.7411 3.025ZM65.2754 12.2423V5.04691H66.5918V12.2423H65.2754Z" fill="white"/>
<path d="M68.7776 1.68628H70.094V12.2423H68.7776V1.68628Z" fill="white"/>
<path d="M76.319 12.2426L76.2142 11.3358H76.169C75.7653 11.901 74.9877 12.4061 73.9552 12.4061C72.4895 12.4061 71.741 11.3807 71.741 10.3397C71.741 8.60004 73.2966 7.64878 76.094 7.66326V7.51563C76.094 6.92006 75.9295 5.84976 74.4485 5.84976C73.7753 5.84976 73.0723 6.05781 72.5637 6.38491L72.2648 5.52303C72.8634 5.13695 73.7306 4.88403 74.6433 4.88403C76.8571 4.88403 77.3955 6.38527 77.3955 7.8268V10.5177C77.3955 11.1423 77.4254 11.7527 77.5153 12.2429H76.3187L76.319 12.2426ZM76.1243 8.57073C74.6884 8.54033 73.0578 8.79362 73.0578 10.1903C73.0578 11.0377 73.6264 11.4397 74.2996 11.4397C75.2421 11.4397 75.8403 10.8452 76.0496 10.2351C76.0948 10.1009 76.1246 9.95292 76.1246 9.81868V8.57073H76.1243Z" fill="white"/>
<path d="M79.4639 12.2423C79.4937 11.752 79.5236 11.0233 79.5236 10.384V1.68628H80.8251V6.20663H80.8549C81.3188 5.40409 82.1565 4.88342 83.3233 4.88342C85.1185 4.88342 86.3898 6.36982 86.3748 8.55491C86.3748 11.1272 84.7446 12.4055 83.1289 12.4055C82.0818 12.4055 81.2441 12.0035 80.7057 11.0523H80.6609L80.6008 12.2423H79.4642H79.4639ZM80.8251 9.35745C80.8251 9.52209 80.8549 9.68563 80.8848 9.83326C81.1393 10.7411 81.902 11.3645 82.8595 11.3645C84.2356 11.3645 85.0584 10.2497 85.0584 8.59978C85.0584 7.15788 84.3106 5.92332 82.9042 5.92332C82.0068 5.92332 81.1691 6.53336 80.9001 7.52985C80.8699 7.67892 80.8251 7.85658 80.8251 8.06499V9.35782V9.35745Z" fill="white"/>
<path d="M88.04 1.68628H89.3565V12.2423H88.04V1.68628Z" fill="white"/>
<path d="M92.305 8.88165C92.3352 10.6514 93.4718 11.3801 94.7882 11.3801C95.7308 11.3801 96.2991 11.2165 96.7927 11.0085L97.017 11.9442C96.5532 12.1522 95.7603 12.391 94.6084 12.391C92.3796 12.391 91.0486 10.9336 91.0486 8.76297C91.0486 6.59234 92.3352 4.88306 94.4442 4.88306C96.8077 4.88306 97.436 6.94947 97.436 8.27269C97.436 8.54008 97.4062 8.74849 97.3912 8.88165H92.3053H92.305ZM96.1647 7.94595C96.1796 7.11302 95.8207 5.8202 94.3397 5.8202C93.0083 5.8202 92.4251 7.03921 92.3203 7.94595H96.1647Z" fill="white"/>
<path d="M108.795 8.58544C108.795 11.2463 106.94 12.406 105.19 12.406C103.231 12.406 101.72 10.9789 101.72 8.70412C101.72 6.29505 103.305 4.88354 105.31 4.88354C107.314 4.88354 108.795 6.38478 108.795 8.58544ZM103.051 8.65925C103.051 10.2354 103.964 11.4254 105.25 11.4254C106.536 11.4254 107.449 10.2499 107.449 8.6303C107.449 7.41129 106.836 5.86411 105.28 5.86411C103.724 5.86411 103.051 7.29117 103.051 8.65925Z" fill="white"/>
<path d="M110.46 6.99434C110.46 6.25114 110.445 5.64109 110.4 5.0466H111.566L111.641 6.23522H111.671C112.03 5.55136 112.868 4.88306 114.065 4.88306C115.067 4.88306 116.623 5.47754 116.623 7.94559V12.242H115.306V8.09467C115.306 6.935 114.872 5.96783 113.631 5.96783C112.763 5.96783 112.09 6.57787 111.866 7.3066C111.806 7.47015 111.776 7.69267 111.776 7.91556V12.242H110.459V6.99434H110.46Z" fill="white"/>
<path d="M123.525 2.98034V5.04676H125.41V6.04288H123.525V9.92279C123.525 10.8151 123.779 11.3209 124.512 11.3209C124.856 11.3209 125.111 11.276 125.275 11.2312L125.335 12.2117C125.081 12.3159 124.677 12.3908 124.168 12.3908C123.555 12.3908 123.061 12.1973 122.747 11.8401C122.373 11.4541 122.238 10.8147 122.238 9.96729V6.04252H121.116V5.0464H122.238V3.32119L123.525 2.97998L123.525 2.98034Z" fill="white"/>
<path d="M126.893 1.68628H128.21V6.17624H128.24C128.449 5.80464 128.778 5.4779 129.182 5.25502C129.571 5.03213 130.035 4.88342 130.529 4.88342C131.501 4.88342 133.057 5.4779 133.057 7.96079V12.2423H131.74V8.1095C131.74 6.94983 131.306 5.96818 130.065 5.96818C129.212 5.96818 128.539 6.56376 128.3 7.27693C128.225 7.45495 128.21 7.64853 128.21 7.90145V12.2423H126.893V1.68628Z" fill="white"/>
<path d="M135.933 8.88165C135.963 10.6514 137.1 11.3801 138.416 11.3801C139.359 11.3801 139.927 11.2165 140.421 11.0085L140.645 11.9442C140.181 12.1522 139.388 12.391 138.236 12.391C136.008 12.391 134.677 10.9336 134.677 8.76297C134.677 6.59234 135.963 4.88306 138.072 4.88306C140.436 4.88306 141.064 6.94947 141.064 8.27269C141.064 8.54008 141.034 8.74849 141.019 8.88165H135.933H135.933ZM139.792 7.94595C139.807 7.11302 139.448 5.8202 137.967 5.8202C136.636 5.8202 136.053 7.03921 135.948 7.94595H139.792Z" fill="white"/>
<path d="M44.4901 30.2479L42.6425 35.8096H40.2673L46.3115 18.1292H49.0827L55.153 35.8096H52.6982L50.7978 30.2479H44.4901ZM50.3227 28.4645L48.5803 23.3768C48.1849 22.2215 47.9206 21.1725 47.6567 20.1496H47.6039C47.3399 21.1982 47.0494 22.2746 46.7068 23.3489L44.9644 28.4641H50.3223L50.3227 28.4645Z" fill="white"/>
<path d="M57.616 27.2579C57.616 25.6325 57.5632 24.3213 57.5107 23.1146H59.5954L59.7013 25.291H59.7541C60.7046 23.7445 62.2086 22.8262 64.2939 22.8262C67.3815 22.8262 69.7038 25.4234 69.7038 29.2783C69.7038 33.8425 66.9064 36.0981 63.8978 36.0981C62.2086 36.0981 60.7309 35.3632 59.9652 34.1055H59.9125V41.0042H57.6163V27.2579H57.616ZM59.9121 30.6432C59.9121 30.9829 59.9649 31.2988 60.0173 31.5872C60.4396 33.1868 61.8387 34.289 63.5014 34.289C65.9558 34.289 67.3808 32.2942 67.3808 29.3829C67.3808 26.8392 66.0349 24.6607 63.5804 24.6607C61.9971 24.6607 60.519 25.7907 60.0705 27.5206C59.9911 27.8089 59.9121 28.1505 59.9121 28.4646V30.6432Z" fill="white"/>
<path d="M72.6409 27.2579C72.6409 25.6325 72.5881 24.3213 72.5356 23.1146H74.6206L74.7258 25.291H74.7786C75.7292 23.7445 77.2331 22.8262 79.3184 22.8262C82.406 22.8262 84.7284 25.4234 84.7284 29.2783C84.7284 33.8425 81.9309 36.0981 78.9224 36.0981C77.2331 36.0981 75.7554 35.3632 74.9898 34.1055H74.937V41.0042H72.6409V27.2579ZM74.937 30.6432C74.937 30.9829 74.9898 31.2988 75.0429 31.5872C75.4652 33.1868 76.8636 34.289 78.5263 34.289C80.9807 34.289 82.4057 32.2942 82.4057 29.3829C82.4057 26.8392 81.0597 24.6607 78.6053 24.6607C77.022 24.6607 75.5439 25.7907 75.0953 27.5206C75.016 27.8089 74.937 28.1505 74.937 28.4646V30.6432Z" fill="white"/>
<path d="M93.0268 33.029C94.056 33.659 95.5603 34.1844 97.1444 34.1844C99.4933 34.1844 100.865 32.9498 100.865 31.1663C100.865 29.5131 99.9156 28.5691 97.5135 27.6529C94.6109 26.6301 92.8157 25.135 92.8157 22.6423C92.8157 19.887 95.1118 17.8408 98.5689 17.8408C100.39 17.8408 101.71 18.2616 102.502 18.7081L101.868 20.5705C101.287 20.2542 100.1 19.731 98.4899 19.731C96.0616 19.731 95.138 21.1726 95.138 22.3796C95.138 24.0328 96.22 24.8444 98.6749 25.7906C101.683 26.9441 103.214 28.3857 103.214 30.9829C103.214 33.7125 101.182 36.0724 96.9856 36.0724C95.2702 36.0724 93.3964 35.5727 92.4458 34.9446L93.0265 33.0287L93.0268 33.029Z" fill="white"/>
<path d="M109.001 19.4684V23.1142H112.327V24.872H109.001V31.7174C109.001 33.2914 109.451 34.1844 110.744 34.1844C111.35 34.1844 111.799 34.1055 112.09 34.0263L112.195 35.7562C111.746 35.94 111.034 36.0724 110.137 36.0724C109.055 36.0724 108.184 35.7309 107.629 35.1006C106.97 34.4192 106.732 33.2914 106.732 31.7963V24.872H104.753V23.1142H106.732V20.0705L109.002 19.468L109.001 19.4684Z" fill="white"/>
<path d="M126.346 29.3576C126.346 34.052 123.073 36.0981 119.985 36.0981C116.527 36.0981 113.862 33.5801 113.862 29.5667C113.862 25.3185 116.659 22.8262 120.196 22.8262C123.733 22.8262 126.346 25.4748 126.346 29.3576ZM116.211 29.4878C116.211 32.2685 117.82 34.3682 120.09 34.3682C122.36 34.3682 123.971 32.2942 123.971 29.4365C123.971 27.2857 122.888 24.5561 120.144 24.5561C117.4 24.5561 116.211 27.0741 116.211 29.4878H116.211Z" fill="white"/>
<path d="M129.283 27.0743C129.283 25.5792 129.257 24.2954 129.178 23.1144H131.21L131.289 25.6071H131.394C131.975 23.9007 133.374 22.8264 134.931 22.8264C135.195 22.8264 135.379 22.8521 135.591 22.9053V25.0817C135.353 25.0282 135.116 25.0028 134.799 25.0028C133.162 25.0028 132.001 26.2352 131.685 27.9673C131.632 28.2814 131.579 28.6486 131.579 29.0416V35.81H129.283V27.0743Z" fill="white"/>
<path d="M138.947 29.8807C139 33.0033 141.006 34.2888 143.328 34.2888C144.991 34.2888 145.994 34.0005 146.865 33.6332L147.261 35.2842C146.443 35.6515 145.044 36.0723 143.011 36.0723C139.079 36.0723 136.73 33.5008 136.73 29.6712C136.73 25.8415 139 22.8257 142.721 22.8257C146.891 22.8257 148 26.4715 148 28.806C148 29.2782 147.947 29.6455 147.921 29.8803H138.947L138.947 29.8807ZM145.756 28.2296C145.782 26.7602 145.149 24.4771 142.536 24.4771C140.187 24.4771 139.158 26.63 138.973 28.2296H145.756Z" fill="white"/>
<path d="M27.7483 27.1224C28.2103 27.2027 28.4863 27.6822 28.3297 28.1214C26.6994 32.695 23.8387 36.2442 20.584 36.2442C19.617 36.2442 18.6836 35.9706 17.8062 35.4753C15.9837 34.4441 13.7822 34.4441 11.9601 35.4753C11.0824 35.9706 10.1529 36.2442 9.18597 36.2442C4.11315 36.2442 0 27.6286 0 19.9517C0 12.2747 4.11315 8.4458 9.1856 8.4458C10.4573 8.4458 11.6659 8.75625 12.7669 9.34025C14.0946 10.0498 15.6713 10.0498 16.9987 9.34386C18.0996 8.75625 19.3119 8.4458 20.5836 8.4458C23.6097 8.4458 26.2972 9.81099 27.9675 12.5443C28.242 12.9933 27.9824 13.5704 27.4658 13.6822C24.3673 14.3531 22.0526 17.0921 22.0526 20.3728C22.0526 23.6535 24.5104 26.5594 27.7479 27.1221L27.7483 27.1224Z" fill="white"/>
<path d="M19.5727 5.72923C18.194 7.57782 16.2238 8.62749 14.4406 8.64812C13.9418 6.94643 14.3769 4.76604 15.7552 2.91744C17.1339 1.06885 19.106 0.0206244 20.8895 0C21.3883 1.70169 20.9514 3.88064 19.5727 5.72923Z" fill="white"/>
</svg>
