<svg width="40" height="40" viewBox="0 0 40 40" fill="none" xmlns="http://www.w3.org/2000/svg">
<path d="M26.6666 11.6667C26.6666 15.3486 23.6818 18.3333 19.9999 18.3333C16.318 18.3333 13.3333 15.3486 13.3333 11.6667C13.3333 7.98477 16.318 5 19.9999 5C23.6818 5 26.6666 7.98477 26.6666 11.6667Z" stroke="#1B5FFF" stroke-width="2" stroke-linecap="round"/>
<path d="M30 31.6666V31.6666C30 27.0643 26.269 23.3333 21.6667 23.3333H18.3333C13.731 23.3333 10 27.0643 10 31.6666V31.6666" stroke="#1B5FFF" stroke-width="2" stroke-linecap="round"/>
<path d="M24.1667 6.46219C25.3081 5.54727 26.7568 5 28.3334 5C32.0153 5 35.0001 7.98477 35.0001 11.6667C35.0001 15.3486 32.0153 18.3333 28.3334 18.3333C26.7568 18.3333 25.3081 17.7861 24.1667 16.8711" stroke="#1B5FFF" stroke-width="2" stroke-linecap="round"/>
<path d="M38.3333 31.6666V31.6666C38.3333 27.0643 34.6024 23.3333 30 23.3333H22.5" stroke="#1B5FFF" stroke-width="2" stroke-linecap="round"/>
</svg>
