<svg width="155" height="37" viewBox="0 0 155 37" fill="none" xmlns="http://www.w3.org/2000/svg">
<g clip-path="url(#clip0_18_829)">
<path d="M21.5839 12.5229L15.6167 18.4999L0.230713 3.08676C0.792584 1.92121 2.2769 1.35843 3.51718 2.07544L21.5839 12.5232V12.5229Z" fill="#00FF7C"/>
<path d="M28.4007 20.5318L21.5837 24.4748L15.6165 18.4999L21.5837 12.5229L28.4007 16.466C29.9638 17.3698 29.9638 19.6284 28.4007 20.5321V20.5318Z" fill="#FFD001"/>
<path d="M15.6166 18.4998L0.230611 33.9108C0.0833449 33.6073 0 33.2642 0 32.8903V4.10931C0 3.73541 0.0833449 3.39017 0.230611 3.08667L15.6166 18.5002V18.4998Z" fill="#00D3FF"/>
<path d="M21.5839 24.4749L3.51718 34.9248C2.2769 35.6418 0.790465 35.0787 0.230713 33.911L15.6167 18.5L21.5839 24.4749Z" fill="#FF2132"/>
<path d="M48.8638 8.84976C48.3645 9.02096 47.3781 9.30395 46.213 9.30395C44.9067 9.30395 43.831 8.98488 42.9859 8.21056C42.2432 7.5222 41.782 6.41679 41.782 5.12638C41.795 2.65734 43.5622 0.85083 46.4564 0.85083C47.4554 0.85083 48.2366 1.05989 48.6078 1.2318L48.3387 2.1041C47.8778 1.90813 47.3015 1.74789 46.4306 1.74789C44.3304 1.74789 42.9601 3.00152 42.9601 5.07721C42.9601 7.15291 44.2792 8.41962 46.2897 8.41962C47.02 8.41962 47.519 8.32057 47.7754 8.19854V5.72879H46.0209V4.86851H48.8638V8.85011V8.84976Z" fill="white"/>
<path d="M55.0405 5.33542H51.6851V8.32055H55.4247V9.21797H50.5713V0.936768H55.2326V1.83418H51.6851V4.45109H55.0405V5.33542Z" fill="white"/>
<path d="M58.7194 1.84586H56.094V0.936768H62.484V1.84621H59.8459V9.21797H58.7194V1.84586Z" fill="white"/>
<path d="M67.2782 0.936768V9.21797H66.1643V0.936768H67.2782Z" fill="white"/>
<path d="M70.8655 1.84586H68.2405V0.936768H74.6305V1.84621H71.9928V9.21797H70.8655V1.84586Z" fill="white"/>
<path d="M85.6868 4.99135C85.6868 7.84243 83.8815 9.35286 81.6785 9.35286C79.4755 9.35286 77.7983 7.65707 77.7983 5.15124C77.7983 2.52231 79.5013 0.801758 81.8067 0.801758C84.1121 0.801758 85.6868 2.53433 85.6868 4.99135ZM78.9895 5.12648C78.9895 6.89619 79.9886 8.48056 81.7427 8.48056C83.4969 8.48056 84.509 6.91989 84.509 5.04017C84.509 3.39461 83.6124 1.67406 81.7558 1.67406C79.8993 1.67406 78.9899 3.30865 78.9899 5.12648H78.9895Z" fill="white"/>
<path d="M87.1389 9.21762V0.936768H88.3552L91.1211 5.12636C91.7617 6.09771 92.2611 6.97001 92.6708 7.8172L92.6962 7.80517C92.5938 6.6987 92.568 5.69127 92.568 4.40192V0.936768H93.6183V9.21797H92.4914L89.7509 5.01635C89.1491 4.09488 88.5727 3.14865 88.1373 2.25229L88.0992 2.26432C88.1634 3.30854 88.1888 4.30323 88.1888 5.6796V9.21797H87.1389V9.21762Z" fill="white"/>
<path d="M54.6651 30.3426C53.7564 30.6676 51.9624 31.2053 49.8428 31.2053C47.4664 31.2053 45.5092 30.5994 43.9719 29.1285C42.6207 27.8215 41.782 25.7218 41.782 23.2708C41.8056 18.5817 45.0204 15.1501 50.2853 15.1501C52.1026 15.1501 53.5237 15.5474 54.199 15.8739L53.7095 17.5308C52.8711 17.1583 51.8226 16.8544 50.2387 16.8544C46.4179 16.8544 43.9253 19.235 43.9253 23.1777C43.9253 27.1204 46.325 29.5258 49.9823 29.5258C51.3105 29.5258 52.2188 29.3376 52.685 29.1059V24.4147H49.4935V22.7808H54.6655V30.3429L54.6651 30.3426Z" fill="white"/>
<path d="M68.0219 25.3018C68.0219 29.478 65.1327 31.2983 62.4074 31.2983C59.3554 31.2983 57.0027 29.0581 57.0027 25.4879C57.0027 21.7069 59.472 19.4915 62.5939 19.4915C65.7158 19.4915 68.0219 21.8473 68.0219 25.3018ZM59.0761 25.4175C59.0761 27.8912 60.4968 29.7592 62.5006 29.7592C64.5044 29.7592 65.9255 27.9142 65.9255 25.3722C65.9255 23.4589 64.9699 21.0309 62.5476 21.0309C60.1253 21.0309 59.0761 23.2711 59.0761 25.4179V25.4175Z" fill="white"/>
<path d="M80.8185 25.3018C80.8185 29.478 77.9293 31.2983 75.204 31.2983C72.152 31.2983 69.7993 29.0581 69.7993 25.4879C69.7993 21.7069 72.2686 19.4915 75.3905 19.4915C78.5124 19.4915 80.8185 21.8473 80.8185 25.3018ZM71.8727 25.4175C71.8727 27.8912 73.2934 29.7592 75.2973 29.7592C77.3011 29.7592 78.7222 27.9142 78.7222 25.3722C78.7222 23.4589 77.7665 21.0309 75.3442 21.0309C72.9219 21.0309 71.8727 23.2711 71.8727 25.4179V25.4175Z" fill="white"/>
<path d="M93.1255 19.7478C93.0789 20.5649 93.0327 21.475 93.0327 22.8504V29.4071C93.0327 31.9986 92.5199 33.5854 91.4251 34.5638C90.33 35.5918 88.746 35.9186 87.3249 35.9186C85.9038 35.9186 84.4827 35.5918 83.5744 34.9858L84.0872 33.422C84.8327 33.8875 85.9974 34.3074 87.3956 34.3074C89.4923 34.3074 91.0296 33.2111 91.0296 30.3647V29.105H90.9829C90.3536 30.1538 89.1423 30.9936 87.3952 30.9936C84.5993 30.9936 82.5962 28.6148 82.5962 25.4874C82.5962 21.6608 85.0888 19.491 87.6746 19.491C89.6318 19.491 90.7029 20.5171 91.1924 21.4499H91.239L91.3326 19.7474H93.1262L93.1255 19.7478ZM91.0059 24.2051C91.0059 23.8535 90.9826 23.5514 90.8894 23.2702C90.5168 22.081 89.5149 21.1004 88.0242 21.1004C86.067 21.1004 84.6696 22.7573 84.6696 25.3717C84.6696 27.5872 85.7877 29.4322 88.0009 29.4322C89.2592 29.4322 90.4006 28.6381 90.8431 27.3307C90.9596 26.9812 91.0062 26.584 91.0062 26.2345V24.2051H91.0059Z" fill="white"/>
<path d="M96.4409 14.4734H98.491V31.0415H96.4409V14.4734Z" fill="white"/>
<path d="M103.084 25.7674C103.13 28.5452 104.901 29.6888 106.951 29.6888C108.419 29.6888 109.304 29.4324 110.073 29.1055L110.423 30.5742C109.7 30.9011 108.465 31.2753 106.672 31.2753C103.2 31.2753 101.127 28.9877 101.127 25.5809C101.127 22.1742 103.131 19.4915 106.416 19.4915C110.097 19.4915 111.075 22.7348 111.075 24.8116C111.075 25.2315 111.028 25.5583 111.005 25.7674H103.084H103.084ZM109.094 24.2987C109.118 22.9916 108.559 20.9623 106.252 20.9623C104.178 20.9623 103.27 22.8756 103.107 24.2987H109.094H109.094Z" fill="white"/>
<path d="M116.646 15.5014C117.624 15.3379 118.906 15.1975 120.536 15.1975C122.54 15.1975 124.008 15.6648 124.939 16.5045C125.801 17.2513 126.314 18.3949 126.314 19.7935C126.314 21.1922 125.895 22.3376 125.103 23.1547C124.031 24.2987 122.284 24.882 120.304 24.882C119.698 24.882 119.139 24.8572 118.673 24.7415V31.0418H116.646V15.5017V15.5014ZM118.673 23.0843C119.116 23.2003 119.675 23.2477 120.35 23.2477C122.796 23.2477 124.287 22.0585 124.287 19.8883C124.287 17.7182 122.82 16.8066 120.583 16.8066C119.698 16.8066 119.022 16.877 118.673 16.9701V23.0843Z" fill="white"/>
<path d="M128.861 14.4734H130.911V31.0415H128.861V14.4734Z" fill="white"/>
<path d="M140.605 31.0415L140.442 29.6184H140.372C139.743 30.5056 138.532 31.2979 136.925 31.2979C134.642 31.2979 133.476 29.6885 133.476 28.0546C133.476 25.3241 135.899 23.831 140.256 23.8537V23.622C140.256 22.6871 139.999 21.0075 137.693 21.0075C136.644 21.0075 135.55 21.3344 134.758 21.8473L134.292 20.4946C135.224 19.8887 136.575 19.4915 137.996 19.4915C141.444 19.4915 142.283 21.8473 142.283 24.1105V28.334C142.283 29.3146 142.329 30.2721 142.469 31.0415H140.605ZM140.302 25.2789C138.066 25.2315 135.526 25.6283 135.526 27.8211C135.526 29.1512 136.412 29.7819 137.46 29.7819C138.928 29.7819 139.86 28.8491 140.186 27.8915C140.256 27.6807 140.302 27.4486 140.302 27.2378V25.2789H140.302Z" fill="white"/>
<path d="M146.156 19.7478L148.625 26.4206C148.881 27.1673 149.161 28.0545 149.347 28.7312H149.394C149.604 28.0548 149.837 27.1921 150.116 26.3753L152.352 19.7482H154.519L151.444 27.7984C149.976 31.6724 148.974 33.654 147.577 34.8684C146.575 35.7556 145.573 36.1054 145.06 36.1984L144.548 34.4712C145.06 34.3077 145.736 33.9809 146.342 33.468C146.901 33.0251 147.6 32.231 148.065 31.1822C148.159 30.9713 148.229 30.8079 148.229 30.6919C148.229 30.5759 148.182 30.4107 148.089 30.1542L143.919 19.7478H146.155H146.156Z" fill="white"/>
</g>
<defs>
<clipPath id="clip0_18_829">
<rect width="154.519" height="35.3965" fill="white" transform="translate(0 0.801758)"/>
</clipPath>
</defs>
</svg>
