<svg width="567" height="19" viewBox="0 0 567 19" fill="none" xmlns="http://www.w3.org/2000/svg">
<path d="M4.91481 9.50081C2.42998 9.54785 0.453759 11.6004 0.500806 14.0852C0.547854 16.57 2.60035 18.5462 5.08519 18.4992L4.91481 9.50081ZM5.09998 13.9981L5.18517 18.4973L5.20945 18.4968L5.23372 18.4961L5.09998 13.9981ZM86.1473 12.7704L85.9218 17.2647L86.1473 12.7704ZM159.926 11.0006L159.745 15.4969L159.926 11.0006ZM174.701 11.6231L174.503 16.1187L174.701 11.6231ZM248.463 9.52251L248.193 5.03063L248.463 9.52251ZM337.056 8.70905L336.992 4.2095L337.056 8.70905ZM396.079 7.12031L395.913 2.62337L396.079 7.12031ZM425.602 7.34065L426.195 2.87989L425.602 7.34065ZM528.91 5.9158L529.132 1.42125L528.91 5.9158ZM543.676 6.01029L543.511 1.51329L543.676 6.01029ZM561.995 4.675L566.316 5.93038L566.505 5.28066L566.494 4.60418L561.995 4.675ZM561.9 5.00157L557.579 3.7462L555.879 9.59691L561.971 9.50102L561.9 5.00157ZM562.071 9.49944C564.556 9.46033 566.539 7.41415 566.499 4.92918C566.46 2.4442 564.414 0.461442 561.929 0.500557L562.071 9.49944ZM5 14L5.08519 18.4992L5.18517 18.4973L5.09998 13.9981L5.01479 9.49891L4.91481 9.50081L5 14ZM5.09998 13.9981L5.23372 18.4961C15.0127 18.2054 22.438 17.8647 27.4614 17.4696L27.1086 12.9834L26.7558 8.4973C21.9585 8.87459 14.7113 9.21035 4.96624 9.50009L5.09998 13.9981ZM27.1086 12.9834L27.4614 17.4696C32.1591 17.1001 36.8665 17.0648 41.5854 17.3638L41.87 12.8728L42.1546 8.38183C37.0124 8.05597 31.8789 8.09437 26.7558 8.4973L27.1086 12.9834ZM41.87 12.8728L41.5854 17.3638C46.6779 17.6865 51.7618 17.7327 56.8364 17.5022L56.6322 13.0069L56.428 8.5115C51.6808 8.72714 46.9232 8.68401 42.1546 8.38183L41.87 12.8728ZM56.6322 13.0069L56.8364 17.5022C61.7068 17.281 66.585 17.1255 71.4711 17.0357L71.3884 12.5364L71.3057 8.0372C66.3388 8.12847 61.3796 8.28657 56.428 8.5115L56.6322 13.0069ZM71.3884 12.5364L71.4711 17.0357C76.295 16.947 81.1118 17.0234 85.9218 17.2647L86.1473 12.7704L86.3727 8.27601C81.3572 8.02439 76.3347 7.94479 71.3057 8.0372L71.3884 12.5364ZM86.1473 12.7704L85.9218 17.2647C91.0455 17.5218 96.1682 17.4185 101.288 16.9551L100.883 12.4734L100.477 7.99172C95.7755 8.41722 91.0746 8.5119 86.3727 8.27601L86.1473 12.7704ZM100.883 12.4734L101.288 16.9551C105.984 16.5301 110.687 16.4441 115.399 16.6969L115.64 12.2034L115.881 7.70984C110.738 7.43386 105.603 7.52781 100.477 7.99172L100.883 12.4734ZM115.64 12.2034L115.399 16.6969C120.409 16.9658 125.422 17.0952 130.437 17.0851L130.428 12.5851L130.419 8.08512C125.571 8.09487 120.725 7.96978 115.881 7.70984L115.64 12.2034ZM130.428 12.5851L130.437 17.0851C135.556 17.0748 140.656 16.7466 145.738 16.1005L145.17 11.6364L144.603 7.17235C139.891 7.77137 135.164 8.07558 130.419 8.08512L130.428 12.5851ZM145.17 11.6364L145.738 16.1005C150.386 15.5095 155.054 15.3083 159.745 15.4969L159.926 11.0006L160.106 6.5042C154.916 6.29551 149.747 6.51819 144.603 7.17235L145.17 11.6364ZM159.926 11.0006L159.745 15.4969C164.68 15.6954 169.599 15.9026 174.503 16.1187L174.701 11.6231L174.899 7.12746C169.983 6.91085 165.053 6.70309 160.106 6.5042L159.926 11.0006ZM174.701 11.6231L174.503 16.1187C179.506 16.3392 184.516 16.403 189.532 16.3099L189.448 11.8107L189.365 7.3115C184.536 7.40103 179.714 7.33967 174.899 7.12746L174.701 11.6231ZM189.448 11.8107L189.532 16.3099C194.577 16.2164 199.623 15.9154 204.669 15.4071L204.218 10.9297L203.767 6.45239C198.964 6.9362 194.164 7.22251 189.365 7.3115L189.448 11.8107ZM204.218 10.9297L204.669 15.4071C209.441 14.9263 214.206 14.6906 218.962 14.6998L218.971 10.1998L218.98 5.6998C213.913 5.69006 208.842 5.94105 203.767 6.45239L204.218 10.9297ZM218.971 10.1998L218.962 14.6998C223.902 14.7093 228.844 14.6725 233.789 14.5894L233.713 10.09L233.637 5.59066C228.749 5.6728 223.863 5.70918 218.98 5.6998L218.971 10.1998ZM233.713 10.09L233.789 14.5894C238.77 14.5057 243.752 14.314 248.733 14.0144L248.463 9.52251L248.193 5.03063C243.341 5.32246 238.489 5.50913 233.637 5.59066L233.713 10.09ZM248.463 9.52251L248.733 14.0144C253.597 13.7218 258.464 13.5141 263.333 13.3914L263.219 8.89283L263.106 4.39426C258.133 4.51964 253.161 4.73177 248.193 5.03063L248.463 9.52251ZM263.219 8.89283L263.333 13.3914C268.162 13.2696 272.995 13.2952 277.83 13.4681L277.991 8.97102L278.151 4.4739C273.134 4.29444 268.119 4.26789 263.106 4.39426L263.219 8.89283ZM277.991 8.97102L277.83 13.4681C282.756 13.6443 287.682 13.8207 292.608 13.9974L292.769 9.50026L292.931 5.00315C288.004 4.82651 283.078 4.65009 278.151 4.4739L277.991 8.97102ZM292.769 9.50026L292.608 13.9974C297.678 14.1791 302.743 14.1186 307.805 13.8157L307.536 9.32373L307.267 4.83176C302.492 5.11752 297.714 5.17465 292.931 5.00315L292.769 9.50026ZM307.536 9.32373L307.805 13.8157C312.641 13.5263 317.478 13.3703 322.317 13.3478L322.296 8.84785L322.275 4.3479C317.27 4.37121 312.268 4.5325 307.267 4.83176L307.536 9.32373ZM322.296 8.84785L322.317 13.3478C327.252 13.3248 332.187 13.2784 337.12 13.2086L337.056 8.70905L336.992 4.2095C332.088 4.27891 327.182 4.32504 322.275 4.3479L322.296 8.84785ZM337.056 8.70905L337.12 13.2086C341.975 13.1399 346.833 13.1733 351.692 13.3088L351.818 8.81054L351.943 4.31229C346.958 4.17327 341.974 4.139 336.992 4.2095L337.056 8.70905ZM351.818 8.81054L351.692 13.3088C356.867 13.4531 362.033 13.1647 367.189 12.4447L366.567 7.98796L365.944 3.53121C361.28 4.18251 356.614 4.44255 351.943 4.31229L351.818 8.81054ZM366.567 7.98796L367.189 12.4447C371.851 11.7937 376.515 11.5371 381.185 11.674L381.317 7.17596L381.449 2.6779C376.272 2.52613 371.103 2.8109 365.944 3.53121L366.567 7.98796ZM381.317 7.17596L381.185 11.674C386.208 11.8213 391.227 11.8023 396.245 11.6173L396.079 7.12031L395.913 2.62337C391.094 2.80113 386.273 2.81931 381.449 2.6779L381.317 7.17596ZM396.079 7.12031L396.245 11.6173C401.157 11.436 406.069 11.2637 410.981 11.1004L410.831 6.60287L410.682 2.10536C405.759 2.26908 400.836 2.44175 395.913 2.62337L396.079 7.12031ZM410.831 6.60287L410.981 11.1004C415.647 10.9452 420.323 11.1784 425.009 11.8014L425.602 7.34065L426.195 2.87989C421.022 2.19214 415.85 1.93348 410.682 2.10536L410.831 6.60287ZM425.602 7.34065L425.009 11.8014C430.294 12.5039 435.576 12.5717 440.848 12.003L440.365 7.52899L439.882 3.05495C435.331 3.54591 430.771 3.48818 426.195 2.87989L425.602 7.34065ZM440.365 7.52899L440.848 12.003C445.712 11.4783 450.578 11.0312 455.444 10.6618L455.104 6.17467L454.763 1.68758C449.801 2.06425 444.841 2.52004 439.882 3.05495L440.365 7.52899ZM455.104 6.17467L455.444 10.6618C460.07 10.3106 464.703 10.4049 469.349 10.9459L469.869 6.4761L470.39 2.0063C465.176 1.39924 459.966 1.29259 454.763 1.68758L455.104 6.17467ZM469.869 6.4761L469.349 10.9459C474.476 11.5429 479.601 11.7962 484.722 11.7049L484.642 7.20559L484.562 2.7063C479.845 2.79038 475.122 2.55731 470.39 2.0063L469.869 6.4761ZM484.642 7.20559L484.722 11.7049C489.673 11.6166 494.622 11.4773 499.571 11.287L499.398 6.79034L499.225 2.29367C494.338 2.48162 489.45 2.61916 484.562 2.7063L484.642 7.20559ZM499.398 6.79034L499.571 11.287C504.528 11.0964 509.484 10.8407 514.44 10.52L514.149 6.02935L513.858 1.53875C508.981 1.8544 504.104 2.10604 499.225 2.29367L499.398 6.79034ZM514.149 6.02935L514.44 10.52C519.185 10.2128 523.935 10.1763 528.689 10.4104L528.91 5.9158L529.132 1.42125C524.036 1.17036 518.945 1.20951 513.858 1.53875L514.149 6.02935ZM528.91 5.9158L528.689 10.4104C533.742 10.6592 538.793 10.6915 543.84 10.5073L543.676 6.01029L543.511 1.51329C538.722 1.68809 533.929 1.65743 529.132 1.42125L528.91 5.9158ZM543.676 6.01029L543.84 10.5073C548.851 10.3244 553.274 9.99487 557.089 9.50956L556.521 5.04552L555.954 0.581485C552.478 1.02353 548.337 1.33718 543.511 1.51329L543.676 6.01029ZM556.521 5.04552L557.089 9.50956C558.893 9.28012 560.153 9.1473 560.928 9.09485C561.345 9.06663 561.47 9.07289 561.422 9.07045C561.397 9.06916 561.325 9.06499 561.222 9.05155C561.131 9.03977 560.928 9.00999 560.667 8.93512C560.465 8.87702 559.884 8.699 559.264 8.23189C558.57 7.70891 557.524 6.55358 557.495 4.74582L561.995 4.675L566.494 4.60418C566.465 2.76934 565.404 1.58957 564.682 1.04483C564.033 0.55595 563.409 0.358822 563.149 0.284271C562.586 0.122509 562.085 0.0925708 561.88 0.0821142C561.375 0.0563812 560.815 0.0818686 560.32 0.115404C559.27 0.186463 557.795 0.347234 555.954 0.581485L556.521 5.04552ZM561.995 4.675L557.674 3.41962L557.579 3.7462L561.9 5.00157L566.221 6.25695L566.316 5.93038L561.995 4.675ZM561.9 5.00157L561.971 9.50102L562.071 9.49944L562 5L561.929 0.500557L561.829 0.502131L561.9 5.00157Z" fill="#1B5FFF"/>
</svg>
